<svg width="4110" height="2170" xmlns="http://www.w3.org/2000/svg" xmlns:xlink="http://www.w3.org/1999/xlink" xml:space="preserve" overflow="hidden"><g transform="translate(-78 -48)"><path d="M2160.5 270.167C2160.5 265.38 2164.38 261.5 2169.17 261.5L2231.83 261.5C2236.62 261.5 2240.5 265.38 2240.5 270.167L2240.5 304.833C2240.5 309.62 2236.62 313.5 2231.83 313.5L2169.17 313.5C2164.38 313.5 2160.5 309.62 2160.5 304.833Z" stroke="#FFFFFF" stroke-width="6.875" stroke-miterlimit="8" fill="#156082" fill-rule="evenodd"/><text fill="#FFFFFF" font-family="DengXian,DengXian_MSFontService,sans-serif" font-weight="400" font-size="23" transform="matrix(1 0 0 1 2193.96 293)">1</text><path d="M2241.63 288.376C2261.68 289.238 2281.7 290.735 2301.65 292.864" stroke="#156082" stroke-width="4.58333" stroke-miterlimit="8" fill="none" fill-rule="evenodd"/><path d="M2301.5 281.167C2301.5 276.38 2305.38 272.5 2310.17 272.5L2373.83 272.5C2378.62 272.5 2382.5 276.38 2382.5 281.167L2382.5 315.833C2382.5 320.62 2378.62 324.5 2373.83 324.5L2310.17 324.5C2305.38 324.5 2301.5 320.62 2301.5 315.833Z" stroke="#FFFFFF" stroke-width="6.875" stroke-miterlimit="8" fill="#156082" fill-rule="evenodd"/><text fill="#FFFFFF" font-family="DengXian,DengXian_MSFontService,sans-serif" font-weight="400" font-size="23" transform="matrix(1 0 0 1 2335.6 303)">2</text><path d="M2383.24 305.172C2402.34 308.908 2421.32 313.231 2440.16 318.133" stroke="#156082" stroke-width="4.58333" stroke-miterlimit="8" fill="none" fill-rule="evenodd"/><path d="M2440.5 312.334C2440.5 307.455 2444.46 303.5 2449.33 303.5L2511.67 303.5C2516.55 303.5 2520.5 307.455 2520.5 312.334L2520.5 347.666C2520.5 352.545 2516.55 356.5 2511.67 356.5L2449.33 356.5C2444.46 356.5 2440.5 352.545 2440.5 347.666Z" stroke="#FFFFFF" stroke-width="6.875" stroke-miterlimit="8" fill="#156082" fill-rule="evenodd"/><text fill="#FFFFFF" font-family="DengXian,DengXian_MSFontService,sans-serif" font-weight="400" font-size="23" transform="matrix(1 0 0 1 2474.07 335)">3</text><path d="M2521.65 343.294C2538.77 349.433 2555.71 356.063 2572.44 363.174" stroke="#156082" stroke-width="4.58333" stroke-miterlimit="8" fill="none" fill-rule="evenodd"/><path d="M2572.5 364.167C2572.5 359.38 2576.38 355.5 2581.17 355.5L2644.83 355.5C2649.62 355.5 2653.5 359.38 2653.5 364.167L2653.5 398.833C2653.5 403.619 2649.62 407.5 2644.83 407.5L2581.17 407.5C2576.38 407.5 2572.5 403.619 2572.5 398.833Z" stroke="#FFFFFF" stroke-width="6.875" stroke-miterlimit="8" fill="#156082" fill-rule="evenodd"/><text fill="#FFFFFF" font-family="DengXian,DengXian_MSFontService,sans-serif" font-weight="400" font-size="23" transform="matrix(1 0 0 1 2606.29 387)">4</text><path d="M2653.78 402.391C2667.9 410.049 2681.83 418.063 2695.54 426.426" stroke="#156082" stroke-width="4.58333" stroke-miterlimit="8" fill="none" fill-rule="evenodd"/><path d="M2695.5 435.167C2695.5 430.38 2699.38 426.5 2704.17 426.5L2767.83 426.5C2772.62 426.5 2776.5 430.38 2776.5 435.167L2776.5 469.833C2776.5 474.62 2772.62 478.5 2767.83 478.5L2704.17 478.5C2699.38 478.5 2695.5 474.62 2695.5 469.833Z" stroke="#FFFFFF" stroke-width="6.875" stroke-miterlimit="8" fill="#156082" fill-rule="evenodd"/><text fill="#FFFFFF" font-family="DengXian,DengXian_MSFontService,sans-serif" font-weight="400" font-size="23" transform="matrix(1 0 0 1 2729.3 458)">5</text><path d="M2773.06 479.104C2788.2 490.519 2802.99 502.384 2817.41 514.684" stroke="#156082" stroke-width="4.58333" stroke-miterlimit="8" fill="none" fill-rule="evenodd"/><path d="M2806.5 524.167C2806.5 519.38 2810.38 515.5 2815.17 515.5L2878.83 515.5C2883.62 515.5 2887.5 519.38 2887.5 524.167L2887.5 558.833C2887.5 563.62 2883.62 567.5 2878.83 567.5L2815.17 567.5C2810.38 567.5 2806.5 563.62 2806.5 558.833Z" stroke="#FFFFFF" stroke-width="6.875" stroke-miterlimit="8" fill="#156082" fill-rule="evenodd"/><text fill="#FFFFFF" font-family="DengXian,DengXian_MSFontService,sans-serif" font-weight="400" font-size="23" transform="matrix(1 0 0 1 2840.34 547)">6</text><path d="M2874.76 567.813C2891.04 584.18 2906.71 601.135 2921.74 618.643" stroke="#156082" stroke-width="4.58333" stroke-miterlimit="8" fill="none" fill-rule="evenodd"/><path d="M2903.5 628.167C2903.5 623.38 2907.38 619.5 2912.17 619.5L2974.83 619.5C2979.62 619.5 2983.5 623.38 2983.5 628.167L2983.5 662.833C2983.5 667.619 2979.62 671.5 2974.83 671.5L2912.17 671.5C2907.38 671.5 2903.5 667.619 2903.5 662.833Z" stroke="#FFFFFF" stroke-width="6.875" stroke-miterlimit="8" fill="#156082" fill-rule="evenodd"/><text fill="#FFFFFF" font-family="DengXian,DengXian_MSFontService,sans-serif" font-weight="400" font-size="23" transform="matrix(1 0 0 1 2936.95 651)">7</text><path d="M2964.38 672.064C2979.7 692.735 2994.17 714.02 3007.76 735.866" stroke="#156082" stroke-width="4.58333" stroke-miterlimit="8" fill="none" fill-rule="evenodd"/><path d="M2983.5 745.167C2983.5 740.38 2987.38 736.5 2992.17 736.5L3054.83 736.5C3059.62 736.5 3063.5 740.38 3063.5 745.167L3063.5 779.833C3063.5 784.62 3059.62 788.5 3054.83 788.5L2992.17 788.5C2987.38 788.5 2983.5 784.62 2983.5 779.833Z" stroke="#FFFFFF" stroke-width="6.875" stroke-miterlimit="8" fill="#156082" fill-rule="evenodd"/><text fill="#FFFFFF" font-family="DengXian,DengXian_MSFontService,sans-serif" font-weight="400" font-size="23" transform="matrix(1 0 0 1 3016.96 768)">8</text><path d="M3038.76 789.527C3051.71 813.735 3063.61 838.493 3074.42 863.731" stroke="#156082" stroke-width="4.58333" stroke-miterlimit="8" fill="none" fill-rule="evenodd"/><path d="M3044.5 873.167C3044.5 868.38 3048.38 864.5 3053.17 864.5L3116.83 864.5C3121.62 864.5 3125.5 868.38 3125.5 873.167L3125.5 907.833C3125.5 912.62 3121.62 916.5 3116.83 916.5L3053.17 916.5C3048.38 916.5 3044.5 912.62 3044.5 907.833Z" stroke="#FFFFFF" stroke-width="6.875" stroke-miterlimit="8" fill="#156082" fill-rule="evenodd"/><text fill="#FFFFFF" font-family="DengXian,DengXian_MSFontService,sans-serif" font-weight="400" font-size="23" transform="matrix(1 0 0 1 3078.59 896)">9</text><path d="M3095.56 917.578C3105.18 944.454 3113.58 971.75 3120.74 999.383" stroke="#156082" stroke-width="4.58333" stroke-miterlimit="8" fill="none" fill-rule="evenodd"/><path d="M3086.5 1009.17C3086.5 1004.38 3090.38 1000.5 3095.17 1000.5L3158.83 1000.5C3163.62 1000.5 3167.5 1004.38 3167.5 1009.17L3167.5 1043.83C3167.5 1048.62 3163.62 1052.5 3158.83 1052.5L3095.17 1052.5C3090.38 1052.5 3086.5 1048.62 3086.5 1043.83Z" stroke="#FFFFFF" stroke-width="6.875" stroke-miterlimit="8" fill="#156082" fill-rule="evenodd"/><text fill="#FFFFFF" font-family="DengXian,DengXian_MSFontService,sans-serif" font-weight="400" font-size="23" transform="matrix(1 0 0 1 3114.42 1032)">10</text><path d="M3133.07 1053.36C3138.73 1081.95 3143.07 1110.79 3146.07 1139.79" stroke="#156082" stroke-width="4.58333" stroke-miterlimit="8" fill="none" fill-rule="evenodd"/><path d="M3107.5 1149.33C3107.5 1144.45 3111.45 1140.5 3116.33 1140.5L3179.67 1140.5C3184.55 1140.5 3188.5 1144.45 3188.5 1149.33L3188.5 1184.67C3188.5 1189.55 3184.55 1193.5 3179.67 1193.5L3116.33 1193.5C3111.45 1193.5 3107.5 1189.55 3107.5 1184.67Z" stroke="#FFFFFF" stroke-width="6.875" stroke-miterlimit="8" fill="#156082" fill-rule="evenodd"/><text fill="#FFFFFF" font-family="DengXian,DengXian_MSFontService,sans-serif" font-weight="400" font-size="23" transform="matrix(1 0 0 1 3135.59 1172)">11</text><path d="M3150.12 1193.83C3151.48 1223.14 3151.48 1252.5 3150.12 1281.82" stroke="#156082" stroke-width="4.58333" stroke-miterlimit="8" fill="none" fill-rule="evenodd"/><path d="M3107.5 1291.33C3107.5 1286.45 3111.45 1282.5 3116.33 1282.5L3179.67 1282.5C3184.55 1282.5 3188.5 1286.45 3188.5 1291.33L3188.5 1326.67C3188.5 1331.55 3184.55 1335.5 3179.67 1335.5L3116.33 1335.5C3111.45 1335.5 3107.5 1331.55 3107.5 1326.67Z" stroke="#FFFFFF" stroke-width="6.875" stroke-miterlimit="8" fill="#156082" fill-rule="evenodd"/><text fill="#FFFFFF" font-family="DengXian,DengXian_MSFontService,sans-serif" font-weight="400" font-size="23" transform="matrix(1 0 0 1 3135.59 1314)">12</text><path d="M3146.07 1335.85C3143.07 1364.85 3138.73 1393.69 3133.07 1422.29" stroke="#156082" stroke-width="4.58333" stroke-miterlimit="8" fill="none" fill-rule="evenodd"/><path d="M3086.5 1432.17C3086.5 1427.38 3090.38 1423.5 3095.17 1423.5L3158.83 1423.5C3163.62 1423.5 3167.5 1427.38 3167.5 1432.17L3167.5 1466.83C3167.5 1471.62 3163.62 1475.5 3158.83 1475.5L3095.17 1475.5C3090.38 1475.5 3086.5 1471.62 3086.5 1466.83Z" stroke="#FFFFFF" stroke-width="6.875" stroke-miterlimit="8" fill="#156082" fill-rule="evenodd"/><text fill="#FFFFFF" font-family="DengXian,DengXian_MSFontService,sans-serif" font-weight="400" font-size="23" transform="matrix(1 0 0 1 3114.42 1455)">13</text><path d="M3120.74 1476.26C3113.58 1503.89 3105.18 1531.19 3095.56 1558.06" stroke="#156082" stroke-width="4.58333" stroke-miterlimit="8" fill="none" fill-rule="evenodd"/><path d="M3044.5 1568.17C3044.5 1563.38 3048.38 1559.5 3053.17 1559.5L3116.83 1559.5C3121.62 1559.5 3125.5 1563.38 3125.5 1568.17L3125.5 1602.83C3125.5 1607.62 3121.62 1611.5 3116.83 1611.5L3053.17 1611.5C3048.38 1611.5 3044.5 1607.62 3044.5 1602.83Z" stroke="#FFFFFF" stroke-width="6.875" stroke-miterlimit="8" fill="#156082" fill-rule="evenodd"/><text fill="#FFFFFF" font-family="DengXian,DengXian_MSFontService,sans-serif" font-weight="400" font-size="23" transform="matrix(1 0 0 1 3072.55 1590)">14</text><path d="M3074.42 1611.91C3063.61 1637.15 3051.71 1661.91 3038.76 1686.11" stroke="#156082" stroke-width="4.58333" stroke-miterlimit="8" fill="none" fill-rule="evenodd"/><path d="M2983.5 1696.17C2983.5 1691.38 2987.38 1687.5 2992.17 1687.5L3054.83 1687.5C3059.62 1687.5 3063.5 1691.38 3063.5 1696.17L3063.5 1730.83C3063.5 1735.62 3059.62 1739.5 3054.83 1739.5L2992.17 1739.5C2987.38 1739.5 2983.5 1735.62 2983.5 1730.83Z" stroke="#FFFFFF" stroke-width="6.875" stroke-miterlimit="8" fill="#156082" fill-rule="evenodd"/><text fill="#FFFFFF" font-family="DengXian,DengXian_MSFontService,sans-serif" font-weight="400" font-size="23" transform="matrix(1 0 0 1 3010.92 1718)">15</text><path d="M3007.76 1739.78C2994.17 1761.62 2979.7 1782.91 2964.38 1803.58" stroke="#156082" stroke-width="4.58333" stroke-miterlimit="8" fill="none" fill-rule="evenodd"/><path d="M2903.5 1813.17C2903.5 1808.38 2907.38 1804.5 2912.17 1804.5L2974.83 1804.5C2979.62 1804.5 2983.5 1808.38 2983.5 1813.17L2983.5 1847.83C2983.5 1852.62 2979.62 1856.5 2974.83 1856.5L2912.17 1856.5C2907.38 1856.5 2903.5 1852.62 2903.5 1847.83Z" stroke="#FFFFFF" stroke-width="6.875" stroke-miterlimit="8" fill="#156082" fill-rule="evenodd"/><text fill="#FFFFFF" font-family="DengXian,DengXian_MSFontService,sans-serif" font-weight="400" font-size="23" transform="matrix(1 0 0 1 2930.91 1836)">16</text><path d="M2921.74 1857C2906.71 1874.51 2891.04 1891.46 2874.76 1907.83" stroke="#156082" stroke-width="4.58333" stroke-miterlimit="8" fill="none" fill-rule="evenodd"/><path d="M2806.5 1917.17C2806.5 1912.38 2810.38 1908.5 2815.17 1908.5L2878.83 1908.5C2883.62 1908.5 2887.5 1912.38 2887.5 1917.17L2887.5 1951.83C2887.5 1956.62 2883.62 1960.5 2878.83 1960.5L2815.17 1960.5C2810.38 1960.5 2806.5 1956.62 2806.5 1951.83Z" stroke="#FFFFFF" stroke-width="6.875" stroke-miterlimit="8" fill="#156082" fill-rule="evenodd"/><text fill="#FFFFFF" font-family="DengXian,DengXian_MSFontService,sans-serif" font-weight="400" font-size="23" transform="matrix(1 0 0 1 2834.3 1940)">17</text><path d="M2817.41 1960.96C2802.99 1973.26 2788.2 1985.12 2773.06 1996.54" stroke="#156082" stroke-width="4.58333" stroke-miterlimit="8" fill="none" fill-rule="evenodd"/><path d="M2695.5 2006.17C2695.5 2001.38 2699.38 1997.5 2704.17 1997.5L2767.83 1997.5C2772.62 1997.5 2776.5 2001.38 2776.5 2006.17L2776.5 2040.83C2776.5 2045.62 2772.62 2049.5 2767.83 2049.5L2704.17 2049.5C2699.38 2049.5 2695.5 2045.62 2695.5 2040.83Z" stroke="#FFFFFF" stroke-width="6.875" stroke-miterlimit="8" fill="#156082" fill-rule="evenodd"/><text fill="#FFFFFF" font-family="DengXian,DengXian_MSFontService,sans-serif" font-weight="400" font-size="23" transform="matrix(1 0 0 1 2723.26 2028)">18</text><path d="M2695.54 2049.22C2681.83 2057.58 2667.9 2065.59 2653.78 2073.25" stroke="#156082" stroke-width="4.58333" stroke-miterlimit="8" fill="none" fill-rule="evenodd"/><path d="M2572.5 2077.17C2572.5 2072.38 2576.38 2068.5 2581.17 2068.5L2644.83 2068.5C2649.62 2068.5 2653.5 2072.38 2653.5 2077.17L2653.5 2111.83C2653.5 2116.62 2649.62 2120.5 2644.83 2120.5L2581.17 2120.5C2576.38 2120.5 2572.5 2116.62 2572.5 2111.83Z" stroke="#FFFFFF" stroke-width="6.875" stroke-miterlimit="8" fill="#156082" fill-rule="evenodd"/><text fill="#FFFFFF" font-family="DengXian,DengXian_MSFontService,sans-serif" font-weight="400" font-size="23" transform="matrix(1 0 0 1 2600.25 2099)">19</text><path d="M2572.44 2112.47C2555.71 2119.58 2538.77 2126.21 2521.65 2132.35" stroke="#156082" stroke-width="4.58333" stroke-miterlimit="8" fill="none" fill-rule="evenodd"/><path d="M2440.5 2128.33C2440.5 2123.45 2444.46 2119.5 2449.33 2119.5L2511.67 2119.5C2516.55 2119.5 2520.5 2123.45 2520.5 2128.33L2520.5 2163.67C2520.5 2168.55 2516.55 2172.5 2511.67 2172.5L2449.33 2172.5C2444.46 2172.5 2440.5 2168.55 2440.5 2163.67Z" stroke="#FFFFFF" stroke-width="6.875" stroke-miterlimit="8" fill="#156082" fill-rule="evenodd"/><text fill="#FFFFFF" font-family="DengXian,DengXian_MSFontService,sans-serif" font-weight="400" font-size="23" transform="matrix(1 0 0 1 2468.03 2151)">20</text><path d="M2440.16 2157.51C2421.33 2162.41 2402.34 2166.73 2383.24 2170.47" stroke="#156082" stroke-width="4.58333" stroke-miterlimit="8" fill="none" fill-rule="evenodd"/><path d="M2301.5 2160.17C2301.5 2155.38 2305.38 2151.5 2310.17 2151.5L2373.83 2151.5C2378.62 2151.5 2382.5 2155.38 2382.5 2160.17L2382.5 2194.83C2382.5 2199.62 2378.62 2203.5 2373.83 2203.5L2310.17 2203.5C2305.38 2203.5 2301.5 2199.62 2301.5 2194.83Z" stroke="#FFFFFF" stroke-width="6.875" stroke-miterlimit="8" fill="#156082" fill-rule="evenodd"/><text fill="#FFFFFF" font-family="DengXian,DengXian_MSFontService,sans-serif" font-weight="400" font-size="23" transform="matrix(1 0 0 1 2329.56 2183)">21</text><path d="M2301.65 2182.78C2281.7 2184.91 2261.68 2186.4 2241.63 2187.27" stroke="#156082" stroke-width="4.58333" stroke-miterlimit="8" fill="none" fill-rule="evenodd"/><path d="M2160.5 2171.17C2160.5 2166.38 2164.38 2162.5 2169.17 2162.5L2231.83 2162.5C2236.62 2162.5 2240.5 2166.38 2240.5 2171.17L2240.5 2205.83C2240.5 2210.62 2236.62 2214.5 2231.83 2214.5L2169.17 2214.5C2164.38 2214.5 2160.5 2210.62 2160.5 2205.83Z" stroke="#FFFFFF" stroke-width="6.875" stroke-miterlimit="8" fill="#156082" fill-rule="evenodd"/><text fill="#FFFFFF" font-family="DengXian,DengXian_MSFontService,sans-serif" font-weight="400" font-size="23" transform="matrix(1 0 0 1 2187.92 2193)">22</text><path d="M2160.01 2187.27C2139.96 2186.4 2119.94 2184.91 2099.99 2182.78" stroke="#156082" stroke-width="4.58333" stroke-miterlimit="8" fill="none" fill-rule="evenodd"/><path d="M2018.5 2160.17C2018.5 2155.38 2022.38 2151.5 2027.17 2151.5L2090.83 2151.5C2095.62 2151.5 2099.5 2155.38 2099.5 2160.17L2099.5 2194.83C2099.5 2199.62 2095.62 2203.5 2090.83 2203.5L2027.17 2203.5C2022.38 2203.5 2018.5 2199.62 2018.5 2194.83Z" stroke="#FFFFFF" stroke-width="6.875" stroke-miterlimit="8" fill="#156082" fill-rule="evenodd"/><text fill="#FFFFFF" font-family="DengXian,DengXian_MSFontService,sans-serif" font-weight="400" font-size="23" transform="matrix(1 0 0 1 2046.28 2183)">23</text><path d="M2018.4 2170.47C1999.3 2166.73 1980.32 2162.41 1961.48 2157.51" stroke="#156082" stroke-width="4.58333" stroke-miterlimit="8" fill="none" fill-rule="evenodd"/><path d="M1880.5 2128.33C1880.5 2123.45 1884.45 2119.5 1889.33 2119.5L1951.67 2119.5C1956.54 2119.5 1960.5 2123.45 1960.5 2128.33L1960.5 2163.67C1960.5 2168.55 1956.54 2172.5 1951.67 2172.5L1889.33 2172.5C1884.45 2172.5 1880.5 2168.55 1880.5 2163.67Z" stroke="#FFFFFF" stroke-width="6.875" stroke-miterlimit="8" fill="#156082" fill-rule="evenodd"/><text fill="#FFFFFF" font-family="DengXian,DengXian_MSFontService,sans-serif" font-weight="400" font-size="23" transform="matrix(1 0 0 1 1907.81 2151)">24</text><path d="M1879.99 2132.35C1862.87 2126.21 1845.94 2119.58 1829.2 2112.47" stroke="#156082" stroke-width="4.58333" stroke-miterlimit="8" fill="none" fill-rule="evenodd"/><path d="M1747.5 2077.17C1747.5 2072.38 1751.38 2068.5 1756.17 2068.5L1819.83 2068.5C1824.62 2068.5 1828.5 2072.38 1828.5 2077.17L1828.5 2111.83C1828.5 2116.62 1824.62 2120.5 1819.83 2120.5L1756.17 2120.5C1751.38 2120.5 1747.5 2116.62 1747.5 2111.83Z" stroke="#FFFFFF" stroke-width="6.875" stroke-miterlimit="8" fill="#156082" fill-rule="evenodd"/><text fill="#FFFFFF" font-family="DengXian,DengXian_MSFontService,sans-serif" font-weight="400" font-size="23" transform="matrix(1 0 0 1 1775.59 2099)">25</text><path d="M1747.87 2073.25C1733.74 2065.59 1719.82 2057.58 1706.1 2049.22" stroke="#156082" stroke-width="4.58333" stroke-miterlimit="8" fill="none" fill-rule="evenodd"/><path d="M1624.5 2006.17C1624.5 2001.38 1628.38 1997.5 1633.17 1997.5L1696.83 1997.5C1701.62 1997.5 1705.5 2001.38 1705.5 2006.17L1705.5 2040.83C1705.5 2045.62 1701.62 2049.5 1696.83 2049.5L1633.17 2049.5C1628.38 2049.5 1624.5 2045.62 1624.5 2040.83Z" stroke="#FFFFFF" stroke-width="6.875" stroke-miterlimit="8" fill="#156082" fill-rule="evenodd"/><text fill="#FFFFFF" font-family="DengXian,DengXian_MSFontService,sans-serif" font-weight="400" font-size="23" transform="matrix(1 0 0 1 1652.59 2028)">26</text><path d="M1628.58 1996.54C1613.45 1985.12 1598.66 1973.26 1584.23 1960.96" stroke="#156082" stroke-width="4.58333" stroke-miterlimit="8" fill="none" fill-rule="evenodd"/><path d="M1513.5 1917.17C1513.5 1912.38 1517.38 1908.5 1522.17 1908.5L1585.83 1908.5C1590.62 1908.5 1594.5 1912.38 1594.5 1917.17L1594.5 1951.83C1594.5 1956.62 1590.62 1960.5 1585.83 1960.5L1522.17 1960.5C1517.38 1960.5 1513.5 1956.62 1513.5 1951.83Z" stroke="#FFFFFF" stroke-width="6.875" stroke-miterlimit="8" fill="#156082" fill-rule="evenodd"/><text fill="#FFFFFF" font-family="DengXian,DengXian_MSFontService,sans-serif" font-weight="400" font-size="23" transform="matrix(1 0 0 1 1541.54 1940)">27</text><path d="M1526.88 1907.83C1510.61 1891.46 1494.94 1874.51 1479.9 1857" stroke="#156082" stroke-width="4.58333" stroke-miterlimit="8" fill="none" fill-rule="evenodd"/><path d="M1417.5 1813.17C1417.5 1808.38 1421.38 1804.5 1426.17 1804.5L1488.83 1804.5C1493.62 1804.5 1497.5 1808.38 1497.5 1813.17L1497.5 1847.83C1497.5 1852.62 1493.62 1856.5 1488.83 1856.5L1426.17 1856.5C1421.38 1856.5 1417.5 1852.62 1417.5 1847.83Z" stroke="#FFFFFF" stroke-width="6.875" stroke-miterlimit="8" fill="#156082" fill-rule="evenodd"/><text fill="#FFFFFF" font-family="DengXian,DengXian_MSFontService,sans-serif" font-weight="400" font-size="23" transform="matrix(1 0 0 1 1444.93 1836)">28</text><path d="M1437.26 1803.58C1421.94 1782.91 1407.47 1761.62 1393.88 1739.78" stroke="#156082" stroke-width="4.58333" stroke-miterlimit="8" fill="none" fill-rule="evenodd"/><path d="M1337.5 1696.17C1337.5 1691.38 1341.38 1687.5 1346.17 1687.5L1408.83 1687.5C1413.62 1687.5 1417.5 1691.38 1417.5 1696.17L1417.5 1730.83C1417.5 1735.62 1413.62 1739.5 1408.83 1739.5L1346.17 1739.5C1341.38 1739.5 1337.5 1735.62 1337.5 1730.83Z" stroke="#FFFFFF" stroke-width="6.875" stroke-miterlimit="8" fill="#156082" fill-rule="evenodd"/><text fill="#FFFFFF" font-family="DengXian,DengXian_MSFontService,sans-serif" font-weight="400" font-size="23" transform="matrix(1 0 0 1 1364.92 1718)">29</text><path d="M1362.88 1686.11C1349.93 1661.91 1338.03 1637.15 1327.23 1611.91" stroke="#156082" stroke-width="4.58333" stroke-miterlimit="8" fill="none" fill-rule="evenodd"/><path d="M1275.5 1568.17C1275.5 1563.38 1279.38 1559.5 1284.17 1559.5L1347.83 1559.5C1352.62 1559.5 1356.5 1563.38 1356.5 1568.17L1356.5 1602.83C1356.5 1607.62 1352.62 1611.5 1347.83 1611.5L1284.17 1611.5C1279.38 1611.5 1275.5 1607.62 1275.5 1602.83Z" stroke="#FFFFFF" stroke-width="6.875" stroke-miterlimit="8" fill="#156082" fill-rule="evenodd"/><text fill="#FFFFFF" font-family="DengXian,DengXian_MSFontService,sans-serif" font-weight="400" font-size="23" transform="matrix(1 0 0 1 1303.29 1590)">30</text><path d="M1306.08 1558.06C1296.46 1531.19 1288.06 1503.89 1280.9 1476.26" stroke="#156082" stroke-width="4.58333" stroke-miterlimit="8" fill="none" fill-rule="evenodd"/><path d="M1233.5 1432.17C1233.5 1427.38 1237.38 1423.5 1242.17 1423.5L1305.83 1423.5C1310.62 1423.5 1314.5 1427.38 1314.5 1432.17L1314.5 1466.83C1314.5 1471.62 1310.62 1475.5 1305.83 1475.5L1242.17 1475.5C1237.38 1475.5 1233.5 1471.62 1233.5 1466.83Z" stroke="#FFFFFF" stroke-width="6.875" stroke-miterlimit="8" fill="#156082" fill-rule="evenodd"/><text fill="#FFFFFF" font-family="DengXian,DengXian_MSFontService,sans-serif" font-weight="400" font-size="23" transform="matrix(1 0 0 1 1261.43 1455)">31</text><path d="M1268.58 1422.29C1262.92 1393.69 1258.58 1364.85 1255.57 1335.85" stroke="#156082" stroke-width="4.58333" stroke-miterlimit="8" fill="none" fill-rule="evenodd"/><path d="M1212.5 1291.33C1212.5 1286.45 1216.45 1282.5 1221.33 1282.5L1284.67 1282.5C1289.55 1282.5 1293.5 1286.45 1293.5 1291.33L1293.5 1326.67C1293.5 1331.55 1289.55 1335.5 1284.67 1335.5L1221.33 1335.5C1216.45 1335.5 1212.5 1331.55 1212.5 1326.67Z" stroke="#FFFFFF" stroke-width="6.875" stroke-miterlimit="8" fill="#156082" fill-rule="evenodd"/><text fill="#FFFFFF" font-family="DengXian,DengXian_MSFontService,sans-serif" font-weight="400" font-size="23" transform="matrix(1 0 0 1 1240.26 1314)">32</text><path d="M1251.52 1281.82C1250.16 1252.5 1250.16 1223.14 1251.52 1193.83" stroke="#156082" stroke-width="4.58333" stroke-miterlimit="8" fill="none" fill-rule="evenodd"/><path d="M1212.5 1149.33C1212.5 1144.45 1216.45 1140.5 1221.33 1140.5L1284.67 1140.5C1289.55 1140.5 1293.5 1144.45 1293.5 1149.33L1293.5 1184.67C1293.5 1189.55 1289.55 1193.5 1284.67 1193.5L1221.33 1193.5C1216.45 1193.5 1212.5 1189.55 1212.5 1184.67Z" stroke="#FFFFFF" stroke-width="6.875" stroke-miterlimit="8" fill="#156082" fill-rule="evenodd"/><text fill="#FFFFFF" font-family="DengXian,DengXian_MSFontService,sans-serif" font-weight="400" font-size="23" transform="matrix(1 0 0 1 1240.26 1172)">33</text><path d="M1255.57 1139.79C1258.58 1110.79 1262.92 1081.95 1268.57 1053.36" stroke="#156082" stroke-width="4.58333" stroke-miterlimit="8" fill="none" fill-rule="evenodd"/><path d="M1233.5 1009.17C1233.5 1004.38 1237.38 1000.5 1242.17 1000.5L1305.83 1000.5C1310.62 1000.5 1314.5 1004.38 1314.5 1009.17L1314.5 1043.83C1314.5 1048.62 1310.62 1052.5 1305.83 1052.5L1242.17 1052.5C1237.38 1052.5 1233.5 1048.62 1233.5 1043.83Z" stroke="#FFFFFF" stroke-width="6.875" stroke-miterlimit="8" fill="#156082" fill-rule="evenodd"/><text fill="#FFFFFF" font-family="DengXian,DengXian_MSFontService,sans-serif" font-weight="400" font-size="23" transform="matrix(1 0 0 1 1261.43 1032)">34</text><path d="M1280.9 999.383C1288.06 971.75 1296.46 944.454 1306.08 917.578" stroke="#156082" stroke-width="4.58333" stroke-miterlimit="8" fill="none" fill-rule="evenodd"/><path d="M1275.5 873.167C1275.5 868.38 1279.38 864.5 1284.17 864.5L1347.83 864.5C1352.62 864.5 1356.5 868.38 1356.5 873.167L1356.5 907.833C1356.5 912.62 1352.62 916.5 1347.83 916.5L1284.17 916.5C1279.38 916.5 1275.5 912.62 1275.5 907.833Z" stroke="#FFFFFF" stroke-width="6.875" stroke-miterlimit="8" fill="#156082" fill-rule="evenodd"/><text fill="#FFFFFF" font-family="DengXian,DengXian_MSFontService,sans-serif" font-weight="400" font-size="23" transform="matrix(1 0 0 1 1303.29 896)">35</text><path d="M1327.23 863.731C1338.03 838.493 1349.93 813.735 1362.88 789.527" stroke="#156082" stroke-width="4.58333" stroke-miterlimit="8" fill="none" fill-rule="evenodd"/><path d="M1337.5 745.167C1337.5 740.38 1341.38 736.5 1346.17 736.5L1408.83 736.5C1413.62 736.5 1417.5 740.38 1417.5 745.167L1417.5 779.833C1417.5 784.62 1413.62 788.5 1408.83 788.5L1346.17 788.5C1341.38 788.5 1337.5 784.62 1337.5 779.833Z" stroke="#FFFFFF" stroke-width="6.875" stroke-miterlimit="8" fill="#156082" fill-rule="evenodd"/><text fill="#FFFFFF" font-family="DengXian,DengXian_MSFontService,sans-serif" font-weight="400" font-size="23" transform="matrix(1 0 0 1 1364.92 768)">36</text><path d="M1393.88 735.866C1407.47 714.02 1421.94 692.735 1437.26 672.063" stroke="#156082" stroke-width="4.58333" stroke-miterlimit="8" fill="none" fill-rule="evenodd"/><path d="M1417.5 628.167C1417.5 623.38 1421.38 619.5 1426.17 619.5L1488.83 619.5C1493.62 619.5 1497.5 623.38 1497.5 628.167L1497.5 662.833C1497.5 667.619 1493.62 671.5 1488.83 671.5L1426.17 671.5C1421.38 671.5 1417.5 667.619 1417.5 662.833Z" stroke="#FFFFFF" stroke-width="6.875" stroke-miterlimit="8" fill="#156082" fill-rule="evenodd"/><text fill="#FFFFFF" font-family="DengXian,DengXian_MSFontService,sans-serif" font-weight="400" font-size="23" transform="matrix(1 0 0 1 1444.93 651)">37</text><path d="M1479.9 618.644C1494.94 601.135 1510.61 584.18 1526.88 567.813" stroke="#156082" stroke-width="4.58333" stroke-miterlimit="8" fill="none" fill-rule="evenodd"/><path d="M1513.5 524.167C1513.5 519.38 1517.38 515.5 1522.17 515.5L1585.83 515.5C1590.62 515.5 1594.5 519.38 1594.5 524.167L1594.5 558.833C1594.5 563.62 1590.62 567.5 1585.83 567.5L1522.17 567.5C1517.38 567.5 1513.5 563.62 1513.5 558.833Z" stroke="#FFFFFF" stroke-width="6.875" stroke-miterlimit="8" fill="#156082" fill-rule="evenodd"/><text fill="#FFFFFF" font-family="DengXian,DengXian_MSFontService,sans-serif" font-weight="400" font-size="23" transform="matrix(1 0 0 1 1541.54 547)">38</text><path d="M1584.23 514.684C1598.66 502.384 1613.45 490.519 1628.58 479.104" stroke="#156082" stroke-width="4.58333" stroke-miterlimit="8" fill="none" fill-rule="evenodd"/><path d="M1624.5 435.167C1624.5 430.38 1628.38 426.5 1633.17 426.5L1696.83 426.5C1701.62 426.5 1705.5 430.38 1705.5 435.167L1705.5 469.833C1705.5 474.62 1701.62 478.5 1696.83 478.5L1633.17 478.5C1628.38 478.5 1624.5 474.62 1624.5 469.833Z" stroke="#FFFFFF" stroke-width="6.875" stroke-miterlimit="8" fill="#156082" fill-rule="evenodd"/><text fill="#FFFFFF" font-family="DengXian,DengXian_MSFontService,sans-serif" font-weight="400" font-size="23" transform="matrix(1 0 0 1 1652.59 458)">39</text><path d="M1706.1 426.426C1719.82 418.063 1733.74 410.049 1747.87 402.392" stroke="#156082" stroke-width="4.58333" stroke-miterlimit="8" fill="none" fill-rule="evenodd"/><path d="M1747.5 364.167C1747.5 359.38 1751.38 355.5 1756.17 355.5L1819.83 355.5C1824.62 355.5 1828.5 359.38 1828.5 364.167L1828.5 398.833C1828.5 403.619 1824.62 407.5 1819.83 407.5L1756.17 407.5C1751.38 407.5 1747.5 403.619 1747.5 398.833Z" stroke="#FFFFFF" stroke-width="6.875" stroke-miterlimit="8" fill="#156082" fill-rule="evenodd"/><text fill="#FFFFFF" font-family="DengXian,DengXian_MSFontService,sans-serif" font-weight="400" font-size="23" transform="matrix(1 0 0 1 1775.59 387)">40</text><path d="M1829.2 363.174C1845.94 356.063 1862.87 349.433 1879.99 343.294" stroke="#156082" stroke-width="4.58333" stroke-miterlimit="8" fill="none" fill-rule="evenodd"/><path d="M1880.5 312.334C1880.5 307.455 1884.45 303.5 1889.33 303.5L1951.67 303.5C1956.54 303.5 1960.5 307.455 1960.5 312.334L1960.5 347.666C1960.5 352.545 1956.54 356.5 1951.67 356.5L1889.33 356.5C1884.45 356.5 1880.5 352.545 1880.5 347.666Z" stroke="#FFFFFF" stroke-width="6.875" stroke-miterlimit="8" fill="#156082" fill-rule="evenodd"/><text fill="#FFFFFF" font-family="DengXian,DengXian_MSFontService,sans-serif" font-weight="400" font-size="23" transform="matrix(1 0 0 1 1907.81 335)">41</text><path d="M1961.48 318.133C1980.32 313.231 1999.3 308.908 2018.4 305.172" stroke="#156082" stroke-width="4.58333" stroke-miterlimit="8" fill="none" fill-rule="evenodd"/><path d="M2018.5 281.167C2018.5 276.38 2022.38 272.5 2027.17 272.5L2090.83 272.5C2095.62 272.5 2099.5 276.38 2099.5 281.167L2099.5 315.833C2099.5 320.62 2095.62 324.5 2090.83 324.5L2027.17 324.5C2022.38 324.5 2018.5 320.62 2018.5 315.833Z" stroke="#FFFFFF" stroke-width="6.875" stroke-miterlimit="8" fill="#156082" fill-rule="evenodd"/><text fill="#FFFFFF" font-family="DengXian,DengXian_MSFontService,sans-serif" font-weight="400" font-size="23" transform="matrix(1 0 0 1 2046.28 303)">42</text><path d="M2099.99 292.864C2119.94 290.735 2139.96 289.238 2160.01 288.376" stroke="#156082" stroke-width="4.58333" stroke-miterlimit="8" fill="none" fill-rule="evenodd"/><path d="M2203.9 316.973 2479.72 2094.84 2472.93 2095.9 2197.1 318.027ZM2489.21 2088.74 2479.84 2118.03 2462.04 2092.96Z" fill="#156082"/><path d="M2343.49 324.809 3035.64 1549.6 3029.66 1552.98 2337.51 328.191ZM3042.36 1540.53 3043.92 1571.24 3018.42 1554.06Z" fill="#156082"/><path d="M3.42805-0.25475 134.888 1768.74 128.032 1769.25-3.42805 0.25475ZM144.832 1763.4 133.158 1791.84 117.408 1765.44Z" fill="#156082" transform="matrix(-1 0 0 1 2479.66 358.5)"/><path d="M2500.91 359.036 2720.71 1971.85 2713.89 1972.78 2494.09 359.964ZM2730.31 1965.92 2720.39 1995.03 2703.06 1969.63Z" fill="#156082"/><path d="M0.471939-3.40495 1387.51 188.844 1386.57 195.654-0.471939 3.40495ZM1384.38 177.999 1409.74 195.395 1380.61 205.239Z" fill="#156082" transform="matrix(-1 0 0 1 2828.24 572.5)"/><path d="M3.41181-0.41945 141.01 1118.81 134.187 1119.65-3.41181 0.41945ZM150.686 1113 140.395 1141.97 123.392 1116.36Z" fill="#156082" transform="matrix(-1 0 0 1 2980.89 771.5)"/><path d="M7.35725e-07-3.4375 27.5-3.43749 27.5 3.43751-7.35725e-07 3.4375ZM48.125-3.43749 75.625-3.43748 75.625 3.43752 48.125 3.43751ZM96.25-3.43748 123.75-3.43747 123.75 3.43753 96.25 3.43752ZM144.375-3.43747 171.875-3.43746 171.875 3.43754 144.375 3.43753ZM192.5-3.43746 220-3.43745 220 3.43755 192.5 3.43754ZM240.625-3.43745 268.125-3.43744 268.125 3.43756 240.625 3.43755ZM288.75-3.43744 316.25-3.43743 316.25 3.43757 288.75 3.43756ZM336.875-3.43743 364.375-3.43742 364.375 3.43758 336.875 3.43757ZM385-3.43742 412.5-3.43741 412.5 3.43759 385 3.43758ZM433.125-3.43741 460.625-3.4374 460.625 3.4376 433.125 3.43759ZM481.25-3.4374 508.75-3.43739 508.75 3.43761 481.25 3.4376ZM529.375-3.43739 556.875-3.43738 556.875 3.43762 529.375 3.43761ZM577.5-3.43738 605-3.43737 605 3.43763 577.5 3.43762ZM625.625-3.43737 653.125-3.43736 653.125 3.43764 625.625 3.43763ZM673.75-3.43736 701.25-3.43735 701.25 3.43765 673.75 3.43764ZM721.875-3.43735 749.375-3.43734 749.375 3.43766 721.875 3.43765ZM770-3.43734 797.5-3.43733 797.5 3.43767 770 3.43766ZM818.125-3.43732 845.625-3.43732 845.625 3.43768 818.125 3.43768ZM866.25-3.43731 893.75-3.43731 893.75 3.43769 866.25 3.43769ZM914.375-3.4373 941.875-3.4373 941.875 3.4377 914.375 3.4377ZM962.5-3.43729 990-3.43729 990 3.43771 962.5 3.43771ZM1010.62-3.43728 1038.12-3.43728 1038.12 3.43772 1010.62 3.43772ZM1058.75-3.43727 1086.25-3.43727 1086.25 3.43773 1058.75 3.43773ZM1106.88-3.43726 1134.38-3.43726 1134.38 3.43774 1106.88 3.43774ZM1155-3.43725 1182.5-3.43725 1182.5 3.43775 1155 3.43775ZM1203.12-3.43724 1230.62-3.43724 1230.62 3.43776 1203.12 3.43776ZM1251.25-3.43723 1278.75-3.43723 1278.75 3.43777 1251.25 3.43777ZM1299.38-3.43722 1326.88-3.43722 1326.88 3.43778 1299.38 3.43778ZM1347.5-3.43721 1375-3.43721 1375 3.43779 1347.5 3.43779ZM1395.62-3.4372 1423.12-3.4372 1423.12 3.4378 1395.62 3.4378ZM1443.75-3.43719 1471.25-3.43719 1471.25 3.43781 1443.75 3.43781ZM1491.88-3.43718 1519.38-3.43717 1519.38 3.43783 1491.88 3.43782ZM1540-3.43717 1567.5-3.43716 1567.5 3.43784 1540 3.43783ZM1588.12-3.43716 1615.62-3.43715 1615.62 3.43785 1588.12 3.43784ZM1636.25-3.43715 1663.27-3.43714 1663.27 3.43786 1636.25 3.43785ZM1658.68-13.7496 1686.18 0.000360892 1658.68 13.7504Z" fill="#156082" transform="matrix(-1 0 0 1 3044.68 893.5)"/><path d="M3.00793-1.66396 594.021 1066.71 588.005 1070.03-3.00793 1.66396ZM600.825 1057.7 602.105 1088.42 576.762 1071.01Z" fill="#156082" transform="matrix(-1 0 0 1 3081.61 1029.5)"/><path d="M3.22651-1.18576 270.321 725.593 263.868 727.964-3.22651 1.18576ZM278.42 717.734 275 748.289 252.608 727.22Z" fill="#156082" transform="matrix(-1 0 0 1 3115.5 1165.5)"/><path d="M2614 2063.82 2601.22 2010.33 2607.91 2008.73 2620.69 2062.23ZM2596.43 1990.27 2594.84 1983.58 2601.52 1981.98 2603.12 1988.67ZM2590.05 1963.52 2577.27 1910.02 2583.96 1908.43 2596.73 1961.92ZM2572.48 1889.96 2570.88 1883.28 2577.57 1881.68 2579.17 1888.37ZM2566.09 1863.22 2553.32 1809.72 2560 1808.12 2572.78 1861.62ZM2548.53 1789.66 2546.93 1782.97 2553.62 1781.38 2555.21 1788.06ZM2542.14 1762.91 2529.36 1709.42 2536.05 1707.82 2548.83 1761.31ZM2524.57 1689.35 2522.98 1682.67 2529.66 1681.07 2531.26 1687.76ZM2518.19 1662.61 2505.41 1609.11 2512.1 1607.51 2524.87 1661.01ZM2500.62 1589.05 2499.02 1582.36 2505.71 1580.77 2507.31 1587.45ZM2494.23 1562.3 2481.46 1508.81 2488.14 1507.21 2500.92 1560.71ZM2476.67 1488.75 2475.07 1482.06 2481.76 1480.46 2483.35 1487.15ZM2470.28 1462 2457.5 1408.5 2464.19 1406.91 2476.97 1460.4ZM2452.71 1388.44 2451.12 1381.75 2457.8 1380.16 2459.4 1386.84ZM2446.33 1361.69 2433.55 1308.2 2440.24 1306.6 2453.01 1360.1ZM2428.76 1288.14 2427.16 1281.45 2433.85 1279.85 2435.45 1286.54ZM2422.37 1261.39 2409.6 1207.89 2416.28 1206.3 2429.06 1259.79ZM2404.81 1187.83 2403.21 1181.14 2409.9 1179.55 2411.49 1186.23ZM2398.42 1161.08 2385.64 1107.59 2392.33 1105.99 2405.11 1159.49ZM2380.85 1087.53 2379.26 1080.84 2385.94 1079.24 2387.54 1085.93ZM2374.47 1060.78 2361.69 1007.28 2368.38 1005.69 2381.15 1059.18ZM2356.9 987.223 2355.3 980.536 2361.99 978.939 2363.59 985.626ZM2350.51 960.475 2337.74 906.979 2344.42 905.382 2357.2 958.878ZM2332.95 886.918 2331.35 880.231 2338.04 878.634 2339.63 885.321ZM2326.56 860.17 2313.78 806.675 2320.47 805.078 2333.25 858.573ZM2308.99 786.614 2307.4 779.927 2314.08 778.33 2315.68 785.017ZM2302.61 759.866 2289.83 706.37 2296.52 704.773 2309.29 758.269ZM2285.04 686.309 2283.44 679.622 2290.13 678.025 2291.73 684.712ZM2278.65 659.561 2265.88 606.065 2272.56 604.469 2285.34 657.964ZM2261.09 586.005 2259.49 579.318 2266.18 577.721 2267.77 584.408ZM2254.7 559.257 2241.92 505.761 2248.61 504.164 2261.39 557.66ZM2237.13 485.7 2235.54 479.013 2242.22 477.416 2243.82 484.103ZM2230.75 458.952 2217.97 405.456 2224.66 403.859 2237.43 457.355ZM2213.18 385.395 2211.58 378.708 2218.27 377.111 2219.87 383.798ZM2206.79 358.648 2202.48 340.586 2209.17 338.989 2213.48 357.051ZM2193.51 347.442 2200.5 317.5 2220.26 341.054Z" fill="#156082"/><path d="M2183.74 2146.52 2149.75 2103.28 2155.16 2099.03 2189.14 2142.28ZM2137.01 2087.07 2132.76 2081.66 2138.16 2077.41 2142.41 2082.82ZM2120.01 2065.45 2086.02 2022.21 2091.43 2017.96 2125.42 2061.2ZM2073.28 2005.99 2069.03 2000.58 2074.44 1996.34 2078.68 2001.74ZM2056.29 1984.37 2022.3 1941.13 2027.7 1936.88 2061.69 1980.12ZM2009.55 1924.91 2005.3 1919.51 2010.71 1915.26 2014.96 1920.66ZM1992.56 1903.29 1958.57 1860.05 1963.98 1855.8 1997.96 1899.04ZM1945.83 1843.83 1941.58 1838.43 1946.98 1834.18 1951.23 1839.58ZM1928.83 1822.21 1894.84 1778.97 1900.25 1774.72 1934.24 1817.96ZM1882.1 1762.76 1877.85 1757.35 1883.26 1753.1 1887.5 1758.51ZM1865.11 1741.13 1831.12 1697.89 1836.52 1693.64 1870.51 1736.89ZM1818.37 1681.68 1814.12 1676.27 1819.53 1672.02 1823.78 1677.43ZM1801.38 1660.06 1767.39 1616.81 1772.8 1612.57 1806.78 1655.81ZM1754.65 1600.6 1750.4 1595.19 1755.8 1590.95 1760.05 1596.35ZM1737.65 1578.98 1703.66 1535.74 1709.07 1531.49 1743.06 1574.73ZM1690.92 1519.52 1686.67 1514.12 1692.08 1509.87 1696.32 1515.27ZM1673.92 1497.9 1639.94 1454.66 1645.34 1450.41 1679.33 1493.65ZM1627.19 1438.44 1622.94 1433.04 1628.35 1428.79 1632.6 1434.19ZM1610.2 1416.82 1576.21 1373.58 1581.62 1369.33 1615.6 1412.57ZM1563.46 1357.36 1559.22 1351.96 1564.62 1347.71 1568.87 1353.12ZM1546.47 1335.74 1512.48 1292.5 1517.89 1288.25 1551.88 1331.5ZM1499.74 1276.29 1495.49 1270.88 1500.89 1266.63 1505.14 1272.04ZM1482.74 1254.67 1448.76 1211.42 1454.16 1207.18 1488.15 1250.42ZM1436.01 1195.21 1431.76 1189.8 1437.17 1185.55 1441.42 1190.96ZM1419.02 1173.59 1385.03 1130.35 1390.44 1126.1 1424.42 1169.34ZM1372.28 1114.13 1368.04 1108.73 1373.44 1104.48 1377.69 1109.88ZM1355.29 1092.51 1334.96 1066.64 1340.36 1062.39 1360.7 1088.26ZM2194.42 2132.3 2200.61 2162.42 2172.8 2149.3ZM1329.68 1076.62 1323.5 1046.5 1351.3 1059.62Z" fill="#156082"/><path d="M2041.02 2129.72 2021.03 2078.48 2027.43 2075.98 2047.42 2127.22ZM2013.53 2059.26 2011.03 2052.86 2017.43 2050.36 2019.93 2056.76ZM2003.53 2033.64 1983.54 1982.41 1989.94 1979.91 2009.94 2031.15ZM1976.04 1963.19 1973.54 1956.79 1979.95 1954.29 1982.45 1960.69ZM1966.05 1937.57 1946.05 1886.34 1952.46 1883.84 1972.45 1935.08ZM1938.56 1867.12 1936.06 1860.72 1942.46 1858.22 1944.96 1864.62ZM1928.56 1841.5 1908.57 1790.27 1914.97 1787.77 1934.96 1839ZM1901.07 1771.05 1898.57 1764.65 1904.98 1762.15 1907.47 1768.55ZM1891.07 1745.43 1871.08 1694.2 1877.49 1691.7 1897.48 1742.93ZM1863.58 1674.98 1861.08 1668.58 1867.49 1666.08 1869.99 1672.48ZM1853.59 1649.36 1833.59 1598.12 1840 1595.63 1859.99 1646.86ZM1826.1 1578.91 1823.6 1572.51 1830 1570.01 1832.5 1576.41ZM1816.1 1553.29 1796.11 1502.05 1802.51 1499.56 1822.51 1550.79ZM1788.61 1482.84 1786.11 1476.44 1792.52 1473.94 1795.02 1480.34ZM1778.61 1457.22 1758.62 1405.98 1765.03 1403.48 1785.02 1454.72ZM1751.12 1386.77 1748.63 1380.37 1755.03 1377.87 1757.53 1384.27ZM1741.13 1361.15 1721.14 1309.91 1727.54 1307.41 1747.53 1358.65ZM1713.64 1290.7 1711.14 1284.29 1717.54 1281.8 1720.04 1288.2ZM1703.64 1265.08 1683.65 1213.84 1690.05 1211.34 1710.05 1262.58ZM1676.15 1194.63 1673.65 1188.22 1680.06 1185.73 1682.56 1192.13ZM1666.16 1169.01 1646.16 1117.77 1652.57 1115.27 1672.56 1166.51ZM1638.67 1098.56 1636.17 1092.15 1642.57 1089.65 1645.07 1096.06ZM1628.67 1072.94 1608.68 1021.7 1615.08 1019.2 1635.07 1070.44ZM1601.18 1002.49 1598.68 996.083 1605.09 993.584 1607.58 999.989ZM1591.18 976.869 1571.19 925.632 1577.6 923.133 1597.59 974.37ZM1563.69 906.418 1561.19 900.013 1567.6 897.514 1570.1 903.919ZM1553.7 880.799 1533.7 829.561 1540.11 827.062 1560.1 878.3ZM1526.21 810.347 1523.71 803.943 1530.11 801.443 1532.61 807.848ZM1516.21 784.728 1496.22 733.49 1502.62 730.992 1522.62 782.229ZM1488.72 714.276 1486.22 707.872 1492.63 705.373 1495.13 711.777ZM2055.37 2119.2 2052.55 2149.82 2029.75 2129.2ZM1473.69 704.117 1476.5 673.5 1499.31 694.12Z" fill="#156082"/><path d="M0.968199-3.29833 53.7415 12.1929 51.8051 18.7895-0.968199 3.29833ZM73.5315 18.0021 80.1282 19.9385 78.1918 26.5351 71.5951 24.5987ZM99.9182 25.7476 152.691 41.2388 150.755 47.8355 97.9818 32.3443ZM172.482 47.048 179.078 48.9844 177.142 55.5811 170.545 53.6447ZM198.868 54.7936 251.641 70.2848 249.705 76.8815 196.932 61.3903ZM271.431 76.094 278.028 78.0304 276.092 84.6271 269.495 82.6907ZM297.818 83.8396 350.591 99.3308 348.655 105.927 295.882 90.4363ZM370.381 105.14 376.978 107.076 375.042 113.673 368.445 111.737ZM396.768 112.886 449.541 128.377 447.605 134.973 394.832 119.482ZM469.331 134.186 475.928 136.122 473.992 142.719 467.395 140.783ZM495.718 141.932 548.491 157.423 546.555 164.019 493.782 148.528ZM568.281 163.232 574.878 165.168 572.942 171.765 566.345 169.829ZM594.668 170.978 647.441 186.469 645.505 193.065 592.732 177.574ZM667.231 192.278 673.828 194.214 671.892 200.811 665.295 198.875ZM693.618 200.024 718.584 207.352 716.647 213.949 691.682 206.62ZM717.091 196.166 739.605 217.105 709.346 222.553Z" fill="#156082" transform="matrix(1 0 0 -1 2063.5 2149.61)"/><path d="M1911.87 2119.3 1413.44 809.142 1419.86 806.698 1918.29 2116.86ZM1405.43 817.092 1408.5 786.5 1431.13 807.314Z" fill="#156082"/><path d="M1782.79 2063.81 1557.58 595.668 1564.37 594.625 1789.58 2062.77ZM1548.08 601.767 1557.5 572.5 1575.26 597.597Z" fill="#156082"/><path d="M1659.45 1972.75 1655.54 1945.53 1662.35 1944.55 1666.25 1971.77ZM1652.61 1925.11 1648.71 1897.89 1655.51 1896.92 1659.42 1924.14ZM1645.78 1877.48 1641.87 1850.25 1648.68 1849.28 1652.58 1876.5ZM1638.94 1829.84 1635.04 1802.62 1641.84 1801.64 1645.75 1828.86ZM1632.11 1782.2 1628.2 1754.98 1635.01 1754 1638.91 1781.22ZM1625.27 1734.56 1621.37 1707.34 1628.17 1706.37 1632.08 1733.59ZM1618.44 1686.93 1614.53 1659.71 1621.34 1658.73 1625.24 1685.95ZM1611.6 1639.29 1607.7 1612.07 1614.5 1611.09 1618.41 1638.31ZM1604.77 1591.65 1600.86 1564.43 1607.67 1563.46 1611.57 1590.68ZM1597.93 1544.02 1594.03 1516.79 1600.83 1515.82 1604.74 1543.04ZM1591.1 1496.38 1587.19 1469.16 1594 1468.18 1597.9 1495.4ZM1584.26 1448.74 1580.36 1421.52 1587.16 1420.54 1591.07 1447.76ZM1577.43 1401.1 1573.52 1373.88 1580.33 1372.91 1584.23 1400.13ZM1570.59 1353.47 1566.69 1326.25 1573.49 1325.27 1577.4 1352.49ZM1563.76 1305.83 1559.85 1278.61 1566.66 1277.63 1570.56 1304.85ZM1556.92 1258.19 1553.02 1230.97 1559.82 1230 1563.73 1257.22ZM1550.09 1210.56 1546.18 1183.33 1552.99 1182.36 1556.89 1209.58ZM1543.25 1162.92 1539.34 1135.7 1546.15 1134.72 1550.06 1161.94ZM1536.42 1115.28 1532.51 1088.06 1539.31 1087.08 1543.22 1114.3ZM1529.58 1067.64 1525.67 1040.42 1532.48 1039.45 1536.39 1066.67ZM1522.75 1020.01 1518.84 992.786 1525.64 991.809 1529.55 1019.03ZM1515.91 972.37 1512 945.149 1518.81 944.172 1522.72 971.393ZM1509.07 924.733 1505.17 897.511 1511.97 896.535 1515.88 923.756ZM1502.24 877.096 1498.33 849.874 1505.14 848.898 1509.05 876.119ZM1495.4 829.458 1491.5 802.237 1498.3 801.261 1502.21 828.482ZM1488.57 781.821 1484.66 754.6 1491.47 753.624 1495.37 780.845ZM1481.73 734.184 1477.83 706.963 1484.63 705.987 1488.54 733.208ZM1675.81 1965.77 1666.11 1994.95 1648.59 1969.68ZM1466.8 702.674 1476.5 673.5 1494.02 698.768Z" fill="#156082"/><path d="M22.9394 3.23251 1503.09 443.2 1501.13 449.79 20.9806 9.82254ZM22.4424 21.0155 0 0 30.2778-5.34461ZM1501.64 432.011 1524.08 453.026 1493.8 458.371Z" fill="#156082" transform="matrix(1 0 0 -1 1557.5 1902.53)"/><path d="M6.50634 22.2411 49.516 337.223 42.7042 338.154-0.305449 23.1712ZM-9.90308 29.1074 0 0 17.3441 25.3869ZM59.1136 331.287 49.2106 360.395 31.8665 335.008Z" fill="#156082" transform="matrix(1 0 0 -1 1274.5 1281.89)"/><text font-family="SimSun,SimSun_MSFontService,sans-serif" font-weight="700" font-size="202" transform="matrix(1 0 0 1 199.448 317)">時局圖</text><text font-family="SimSun,SimSun_MSFontService,sans-serif" font-weight="700" font-size="202" transform="matrix(1 0 0 1 199.448 559)">1.0</text><path d="M3494.5 225.063 3767.81 225.063 3767.81 231.938 3494.5 231.938ZM3763.23 214.75 3790.73 228.5 3763.23 242.25Z" fill="#156082"/><path d="M3494.5 278.063 3522 278.063 3522 284.938 3494.5 284.938ZM3542.62 278.063 3570.12 278.063 3570.12 284.938 3542.62 284.938ZM3590.75 278.063 3618.25 278.063 3618.25 284.938 3590.75 284.938ZM3638.88 278.063 3666.38 278.063 3666.38 284.938 3638.88 284.938ZM3687 278.063 3714.5 278.063 3714.5 284.938 3687 284.938ZM3735.12 278.063 3762.62 278.063 3762.62 284.938 3735.12 284.938ZM3763.05 267.75 3790.55 281.5 3763.05 295.25Z" fill="#156082"/><path d="M0.0399982-3.43727 55.0363-2.7973 54.9563 4.07724-0.0399982 3.43727ZM75.6599-2.55731 82.5344-2.47731 82.4544 4.39722 75.5799 4.31723ZM103.158-2.23732 158.154-1.59735 158.074 5.27718 103.078 4.63721ZM178.778-1.35736 185.652-1.27736 185.572 5.59717 178.698 5.51717ZM206.276-1.03737 261.272-0.397403 261.192 6.47713 206.196 5.83716ZM268.034-10.6319 295.372 3.43714 267.714 16.8662Z" fill="#156082" transform="matrix(1 0 0 -1 3494.5 329.937)"/><rect x="3431.5" y="135.5" width="753" height="233" stroke="#000000" stroke-width="6.875" stroke-miterlimit="8" fill="none"/><text font-family="SimSun,SimSun_MSFontService,sans-serif" font-weight="400" font-size="41" transform="matrix(1 0 0 1 3464.47 194)">图例：</text><text font-family="SimSun,SimSun_MSFontService,sans-serif" font-weight="400" font-size="41" transform="matrix(1 0 0 1 3464.47 243)">A</text><text font-family="SimSun,SimSun_MSFontService,sans-serif" font-weight="400" font-size="41" transform="matrix(1 0 0 1 3794.47 243)">B A</text><text font-family="SimSun,SimSun_MSFontService,sans-serif" font-weight="400" font-size="41" transform="matrix(1 0 0 1 3856.34 243)">喜欢</text><text font-family="SimSun,SimSun_MSFontService,sans-serif" font-weight="400" font-size="41" transform="matrix(1 0 0 1 3938.84 243)">B</text><text font-family="SimSun,SimSun_MSFontService,sans-serif" font-weight="400" font-size="41" transform="matrix(1 0 0 1 3464.47 293)">C</text><text font-family="SimSun,SimSun_MSFontService,sans-serif" font-weight="400" font-size="41" transform="matrix(1 0 0 1 3794.47 293)">D C</text><text font-family="SimSun,SimSun_MSFontService,sans-serif" font-weight="400" font-size="41" transform="matrix(1 0 0 1 3856.34 293)">曾经喜欢</text><text font-family="SimSun,SimSun_MSFontService,sans-serif" font-weight="400" font-size="41" transform="matrix(1 0 0 1 4021.34 293)">D</text><text font-family="SimSun,SimSun_MSFontService,sans-serif" font-weight="400" font-size="41" transform="matrix(1 0 0 1 3464.47 342)">E</text><text font-family="SimSun,SimSun_MSFontService,sans-serif" font-weight="400" font-size="41" transform="matrix(1 0 0 1 3794.47 342)">F E</text><text font-family="SimSun,SimSun_MSFontService,sans-serif" font-weight="400" font-size="41" transform="matrix(1 0 0 1 3856.34 342)">可能喜欢</text><text font-family="SimSun,SimSun_MSFontService,sans-serif" font-weight="400" font-size="41" transform="matrix(1 0 0 1 4021.34 342)">F</text></g></svg>