<svg width="4119" height="2441" xmlns="http://www.w3.org/2000/svg" xmlns:xlink="http://www.w3.org/1999/xlink" xml:space="preserve" overflow="hidden"><g transform="translate(-98 -60)"><path d="M2014.25 2090.27 1488.18 742.046 1513.8 732.049 2039.87 2080.27ZM2060.49 2057.47 2052.05 2149.32 1983.64 2087.45ZM1467.56 764.851 1476 673 1544.42 734.862Z" fill="#FF0000"/><path d="M2160.5 270.167C2160.5 265.38 2164.38 261.5 2169.17 261.5L2231.83 261.5C2236.62 261.5 2240.5 265.38 2240.5 270.167L2240.5 304.833C2240.5 309.62 2236.62 313.5 2231.83 313.5L2169.17 313.5C2164.38 313.5 2160.5 309.62 2160.5 304.833Z" stroke="#FFFFFF" stroke-width="6.875" stroke-miterlimit="8" fill="#156082" fill-rule="evenodd"/><text fill="#FFFFFF" font-family="DengXian,DengXian_MSFontService,sans-serif" font-weight="400" font-size="23" transform="matrix(1 0 0 1 2193.96 293)">1</text><path d="M2241.63 288.376C2261.68 289.238 2281.7 290.735 2301.65 292.864" stroke="#156082" stroke-width="4.58333" stroke-miterlimit="8" fill="none" fill-rule="evenodd"/><path d="M2301.5 281.167C2301.5 276.38 2305.38 272.5 2310.17 272.5L2373.83 272.5C2378.62 272.5 2382.5 276.38 2382.5 281.167L2382.5 315.833C2382.5 320.62 2378.62 324.5 2373.83 324.5L2310.17 324.5C2305.38 324.5 2301.5 320.62 2301.5 315.833Z" stroke="#FFFFFF" stroke-width="6.875" stroke-miterlimit="8" fill="#156082" fill-rule="evenodd"/><text fill="#FFFFFF" font-family="DengXian,DengXian_MSFontService,sans-serif" font-weight="400" font-size="23" transform="matrix(1 0 0 1 2335.6 303)">2</text><path d="M2383.24 305.172C2402.34 308.908 2421.32 313.231 2440.16 318.133" stroke="#156082" stroke-width="4.58333" stroke-miterlimit="8" fill="none" fill-rule="evenodd"/><path d="M2440.5 312.334C2440.5 307.455 2444.46 303.5 2449.33 303.5L2511.67 303.5C2516.55 303.5 2520.5 307.455 2520.5 312.334L2520.5 347.666C2520.5 352.545 2516.55 356.5 2511.67 356.5L2449.33 356.5C2444.46 356.5 2440.5 352.545 2440.5 347.666Z" stroke="#FFFFFF" stroke-width="6.875" stroke-miterlimit="8" fill="#156082" fill-rule="evenodd"/><text fill="#FFFFFF" font-family="DengXian,DengXian_MSFontService,sans-serif" font-weight="400" font-size="23" transform="matrix(1 0 0 1 2474.07 335)">3</text><path d="M2521.65 343.294C2538.77 349.433 2555.71 356.063 2572.44 363.174" stroke="#156082" stroke-width="4.58333" stroke-miterlimit="8" fill="none" fill-rule="evenodd"/><path d="M2572.5 364.167C2572.5 359.38 2576.38 355.5 2581.17 355.5L2644.83 355.5C2649.62 355.5 2653.5 359.38 2653.5 364.167L2653.5 398.833C2653.5 403.619 2649.62 407.5 2644.83 407.5L2581.17 407.5C2576.38 407.5 2572.5 403.619 2572.5 398.833Z" stroke="#FFFFFF" stroke-width="6.875" stroke-miterlimit="8" fill="#156082" fill-rule="evenodd"/><text fill="#FFFFFF" font-family="DengXian,DengXian_MSFontService,sans-serif" font-weight="400" font-size="23" transform="matrix(1 0 0 1 2606.29 387)">4</text><path d="M2653.78 402.391C2667.9 410.049 2681.83 418.063 2695.54 426.426" stroke="#156082" stroke-width="4.58333" stroke-miterlimit="8" fill="none" fill-rule="evenodd"/><path d="M2695.5 435.167C2695.5 430.38 2699.38 426.5 2704.17 426.5L2767.83 426.5C2772.62 426.5 2776.5 430.38 2776.5 435.167L2776.5 469.833C2776.5 474.62 2772.62 478.5 2767.83 478.5L2704.17 478.5C2699.38 478.5 2695.5 474.62 2695.5 469.833Z" stroke="#FFFFFF" stroke-width="6.875" stroke-miterlimit="8" fill="#156082" fill-rule="evenodd"/><text fill="#FFFFFF" font-family="DengXian,DengXian_MSFontService,sans-serif" font-weight="400" font-size="23" transform="matrix(1 0 0 1 2729.3 458)">5</text><path d="M2773.06 479.104C2788.2 490.519 2802.99 502.384 2817.41 514.684" stroke="#156082" stroke-width="4.58333" stroke-miterlimit="8" fill="none" fill-rule="evenodd"/><path d="M2806.5 524.167C2806.5 519.38 2810.38 515.5 2815.17 515.5L2878.83 515.5C2883.62 515.5 2887.5 519.38 2887.5 524.167L2887.5 558.833C2887.5 563.62 2883.62 567.5 2878.83 567.5L2815.17 567.5C2810.38 567.5 2806.5 563.62 2806.5 558.833Z" stroke="#FFFFFF" stroke-width="6.875" stroke-miterlimit="8" fill="#156082" fill-rule="evenodd"/><text fill="#FFFFFF" font-family="DengXian,DengXian_MSFontService,sans-serif" font-weight="400" font-size="23" transform="matrix(1 0 0 1 2840.34 547)">6</text><path d="M2874.76 567.813C2891.04 584.18 2906.71 601.135 2921.74 618.643" stroke="#156082" stroke-width="4.58333" stroke-miterlimit="8" fill="none" fill-rule="evenodd"/><path d="M2903.5 628.167C2903.5 623.38 2907.38 619.5 2912.17 619.5L2974.83 619.5C2979.62 619.5 2983.5 623.38 2983.5 628.167L2983.5 662.833C2983.5 667.619 2979.62 671.5 2974.83 671.5L2912.17 671.5C2907.38 671.5 2903.5 667.619 2903.5 662.833Z" stroke="#FFFFFF" stroke-width="6.875" stroke-miterlimit="8" fill="#156082" fill-rule="evenodd"/><text fill="#FFFFFF" font-family="DengXian,DengXian_MSFontService,sans-serif" font-weight="400" font-size="23" transform="matrix(1 0 0 1 2936.95 651)">7</text><path d="M2964.38 672.064C2979.7 692.735 2994.17 714.02 3007.76 735.866" stroke="#156082" stroke-width="4.58333" stroke-miterlimit="8" fill="none" fill-rule="evenodd"/><path d="M2983.5 745.167C2983.5 740.38 2987.38 736.5 2992.17 736.5L3054.83 736.5C3059.62 736.5 3063.5 740.38 3063.5 745.167L3063.5 779.833C3063.5 784.62 3059.62 788.5 3054.83 788.5L2992.17 788.5C2987.38 788.5 2983.5 784.62 2983.5 779.833Z" stroke="#FFFFFF" stroke-width="6.875" stroke-miterlimit="8" fill="#156082" fill-rule="evenodd"/><text fill="#FFFFFF" font-family="DengXian,DengXian_MSFontService,sans-serif" font-weight="400" font-size="23" transform="matrix(1 0 0 1 3016.96 768)">8</text><path d="M3038.76 789.527C3051.71 813.735 3063.61 838.493 3074.42 863.731" stroke="#156082" stroke-width="4.58333" stroke-miterlimit="8" fill="none" fill-rule="evenodd"/><path d="M3044.5 873.167C3044.5 868.38 3048.38 864.5 3053.17 864.5L3116.83 864.5C3121.62 864.5 3125.5 868.38 3125.5 873.167L3125.5 907.833C3125.5 912.62 3121.62 916.5 3116.83 916.5L3053.17 916.5C3048.38 916.5 3044.5 912.62 3044.5 907.833Z" stroke="#FFFFFF" stroke-width="6.875" stroke-miterlimit="8" fill="#156082" fill-rule="evenodd"/><text fill="#FFFFFF" font-family="DengXian,DengXian_MSFontService,sans-serif" font-weight="400" font-size="23" transform="matrix(1 0 0 1 3078.59 896)">9</text><path d="M3095.56 917.578C3105.18 944.454 3113.58 971.75 3120.74 999.383" stroke="#156082" stroke-width="4.58333" stroke-miterlimit="8" fill="none" fill-rule="evenodd"/><path d="M3086.5 1009.17C3086.5 1004.38 3090.38 1000.5 3095.17 1000.5L3158.83 1000.5C3163.62 1000.5 3167.5 1004.38 3167.5 1009.17L3167.5 1043.83C3167.5 1048.62 3163.62 1052.5 3158.83 1052.5L3095.17 1052.5C3090.38 1052.5 3086.5 1048.62 3086.5 1043.83Z" stroke="#FFFFFF" stroke-width="6.875" stroke-miterlimit="8" fill="#156082" fill-rule="evenodd"/><text fill="#FFFFFF" font-family="DengXian,DengXian_MSFontService,sans-serif" font-weight="400" font-size="23" transform="matrix(1 0 0 1 3114.42 1032)">10</text><path d="M3133.07 1053.36C3138.73 1081.95 3143.07 1110.79 3146.07 1139.79" stroke="#156082" stroke-width="4.58333" stroke-miterlimit="8" fill="none" fill-rule="evenodd"/><path d="M3107.5 1149.33C3107.5 1144.45 3111.45 1140.5 3116.33 1140.5L3179.67 1140.5C3184.55 1140.5 3188.5 1144.45 3188.5 1149.33L3188.5 1184.67C3188.5 1189.55 3184.55 1193.5 3179.67 1193.5L3116.33 1193.5C3111.45 1193.5 3107.5 1189.55 3107.5 1184.67Z" stroke="#FFFFFF" stroke-width="6.875" stroke-miterlimit="8" fill="#156082" fill-rule="evenodd"/><text fill="#FFFFFF" font-family="DengXian,DengXian_MSFontService,sans-serif" font-weight="400" font-size="23" transform="matrix(1 0 0 1 3135.59 1172)">11</text><path d="M3150.12 1193.83C3151.48 1223.14 3151.48 1252.5 3150.12 1281.82" stroke="#156082" stroke-width="4.58333" stroke-miterlimit="8" fill="none" fill-rule="evenodd"/><path d="M3107.5 1291.33C3107.5 1286.45 3111.45 1282.5 3116.33 1282.5L3179.67 1282.5C3184.55 1282.5 3188.5 1286.45 3188.5 1291.33L3188.5 1326.67C3188.5 1331.55 3184.55 1335.5 3179.67 1335.5L3116.33 1335.5C3111.45 1335.5 3107.5 1331.55 3107.5 1326.67Z" stroke="#FFFFFF" stroke-width="6.875" stroke-miterlimit="8" fill="#156082" fill-rule="evenodd"/><text fill="#FFFFFF" font-family="DengXian,DengXian_MSFontService,sans-serif" font-weight="400" font-size="23" transform="matrix(1 0 0 1 3135.59 1314)">12</text><path d="M3146.07 1335.85C3143.07 1364.85 3138.73 1393.69 3133.07 1422.29" stroke="#156082" stroke-width="4.58333" stroke-miterlimit="8" fill="none" fill-rule="evenodd"/><path d="M3086.5 1432.17C3086.5 1427.38 3090.38 1423.5 3095.17 1423.5L3158.83 1423.5C3163.62 1423.5 3167.5 1427.38 3167.5 1432.17L3167.5 1466.83C3167.5 1471.62 3163.62 1475.5 3158.83 1475.5L3095.17 1475.5C3090.38 1475.5 3086.5 1471.62 3086.5 1466.83Z" stroke="#FFFFFF" stroke-width="6.875" stroke-miterlimit="8" fill="#156082" fill-rule="evenodd"/><text fill="#FFFFFF" font-family="DengXian,DengXian_MSFontService,sans-serif" font-weight="400" font-size="23" transform="matrix(1 0 0 1 3114.42 1455)">13</text><path d="M3120.74 1476.26C3113.58 1503.89 3105.18 1531.19 3095.56 1558.06" stroke="#156082" stroke-width="4.58333" stroke-miterlimit="8" fill="none" fill-rule="evenodd"/><path d="M3044.5 1568.17C3044.5 1563.38 3048.38 1559.5 3053.17 1559.5L3116.83 1559.5C3121.62 1559.5 3125.5 1563.38 3125.5 1568.17L3125.5 1602.83C3125.5 1607.62 3121.62 1611.5 3116.83 1611.5L3053.17 1611.5C3048.38 1611.5 3044.5 1607.62 3044.5 1602.83Z" stroke="#FFFFFF" stroke-width="6.875" stroke-miterlimit="8" fill="#156082" fill-rule="evenodd"/><text fill="#FFFFFF" font-family="DengXian,DengXian_MSFontService,sans-serif" font-weight="400" font-size="23" transform="matrix(1 0 0 1 3072.55 1590)">14</text><path d="M3074.42 1611.91C3063.61 1637.15 3051.71 1661.91 3038.76 1686.11" stroke="#156082" stroke-width="4.58333" stroke-miterlimit="8" fill="none" fill-rule="evenodd"/><path d="M2983.5 1696.17C2983.5 1691.38 2987.38 1687.5 2992.17 1687.5L3054.83 1687.5C3059.62 1687.5 3063.5 1691.38 3063.5 1696.17L3063.5 1730.83C3063.5 1735.62 3059.62 1739.5 3054.83 1739.5L2992.17 1739.5C2987.38 1739.5 2983.5 1735.62 2983.5 1730.83Z" stroke="#FFFFFF" stroke-width="6.875" stroke-miterlimit="8" fill="#156082" fill-rule="evenodd"/><text fill="#FFFFFF" font-family="DengXian,DengXian_MSFontService,sans-serif" font-weight="400" font-size="23" transform="matrix(1 0 0 1 3010.92 1718)">15</text><path d="M3007.76 1739.78C2994.17 1761.62 2979.7 1782.91 2964.38 1803.58" stroke="#156082" stroke-width="4.58333" stroke-miterlimit="8" fill="none" fill-rule="evenodd"/><path d="M2903.5 1813.17C2903.5 1808.38 2907.38 1804.5 2912.17 1804.5L2974.83 1804.5C2979.62 1804.5 2983.5 1808.38 2983.5 1813.17L2983.5 1847.83C2983.5 1852.62 2979.62 1856.5 2974.83 1856.5L2912.17 1856.5C2907.38 1856.5 2903.5 1852.62 2903.5 1847.83Z" stroke="#FFFFFF" stroke-width="6.875" stroke-miterlimit="8" fill="#156082" fill-rule="evenodd"/><text fill="#FFFFFF" font-family="DengXian,DengXian_MSFontService,sans-serif" font-weight="400" font-size="23" transform="matrix(1 0 0 1 2930.91 1836)">16</text><path d="M2921.74 1857C2906.71 1874.51 2891.04 1891.46 2874.76 1907.83" stroke="#156082" stroke-width="4.58333" stroke-miterlimit="8" fill="none" fill-rule="evenodd"/><path d="M2806.5 1917.17C2806.5 1912.38 2810.38 1908.5 2815.17 1908.5L2878.83 1908.5C2883.62 1908.5 2887.5 1912.38 2887.5 1917.17L2887.5 1951.83C2887.5 1956.62 2883.62 1960.5 2878.83 1960.5L2815.17 1960.5C2810.38 1960.5 2806.5 1956.62 2806.5 1951.83Z" stroke="#FFFFFF" stroke-width="6.875" stroke-miterlimit="8" fill="#156082" fill-rule="evenodd"/><text fill="#FFFFFF" font-family="DengXian,DengXian_MSFontService,sans-serif" font-weight="400" font-size="23" transform="matrix(1 0 0 1 2834.3 1940)">17</text><path d="M2817.41 1960.96C2802.99 1973.26 2788.2 1985.12 2773.06 1996.54" stroke="#156082" stroke-width="4.58333" stroke-miterlimit="8" fill="none" fill-rule="evenodd"/><path d="M2695.5 2006.17C2695.5 2001.38 2699.38 1997.5 2704.17 1997.5L2767.83 1997.5C2772.62 1997.5 2776.5 2001.38 2776.5 2006.17L2776.5 2040.83C2776.5 2045.62 2772.62 2049.5 2767.83 2049.5L2704.17 2049.5C2699.38 2049.5 2695.5 2045.62 2695.5 2040.83Z" stroke="#FFFFFF" stroke-width="6.875" stroke-miterlimit="8" fill="#156082" fill-rule="evenodd"/><text fill="#FFFFFF" font-family="DengXian,DengXian_MSFontService,sans-serif" font-weight="400" font-size="23" transform="matrix(1 0 0 1 2723.26 2028)">18</text><path d="M2695.54 2049.22C2681.83 2057.58 2667.9 2065.59 2653.78 2073.25" stroke="#156082" stroke-width="4.58333" stroke-miterlimit="8" fill="none" fill-rule="evenodd"/><path d="M2572.5 2077.17C2572.5 2072.38 2576.38 2068.5 2581.17 2068.5L2644.83 2068.5C2649.62 2068.5 2653.5 2072.38 2653.5 2077.17L2653.5 2111.83C2653.5 2116.62 2649.62 2120.5 2644.83 2120.5L2581.17 2120.5C2576.38 2120.5 2572.5 2116.62 2572.5 2111.83Z" stroke="#FFFFFF" stroke-width="6.875" stroke-miterlimit="8" fill="#156082" fill-rule="evenodd"/><text fill="#FFFFFF" font-family="DengXian,DengXian_MSFontService,sans-serif" font-weight="400" font-size="23" transform="matrix(1 0 0 1 2600.25 2099)">19</text><path d="M2572.44 2112.47C2555.71 2119.58 2538.77 2126.21 2521.65 2132.35" stroke="#156082" stroke-width="4.58333" stroke-miterlimit="8" fill="none" fill-rule="evenodd"/><path d="M2440.5 2128.33C2440.5 2123.45 2444.46 2119.5 2449.33 2119.5L2511.67 2119.5C2516.55 2119.5 2520.5 2123.45 2520.5 2128.33L2520.5 2163.67C2520.5 2168.55 2516.55 2172.5 2511.67 2172.5L2449.33 2172.5C2444.46 2172.5 2440.5 2168.55 2440.5 2163.67Z" stroke="#FFFFFF" stroke-width="6.875" stroke-miterlimit="8" fill="#156082" fill-rule="evenodd"/><text fill="#FFFFFF" font-family="DengXian,DengXian_MSFontService,sans-serif" font-weight="400" font-size="23" transform="matrix(1 0 0 1 2468.03 2151)">20</text><path d="M2440.16 2157.51C2421.33 2162.41 2402.34 2166.73 2383.24 2170.47" stroke="#156082" stroke-width="4.58333" stroke-miterlimit="8" fill="none" fill-rule="evenodd"/><path d="M2301.5 2160.17C2301.5 2155.38 2305.38 2151.5 2310.17 2151.5L2373.83 2151.5C2378.62 2151.5 2382.5 2155.38 2382.5 2160.17L2382.5 2194.83C2382.5 2199.62 2378.62 2203.5 2373.83 2203.5L2310.17 2203.5C2305.38 2203.5 2301.5 2199.62 2301.5 2194.83Z" stroke="#FFFFFF" stroke-width="6.875" stroke-miterlimit="8" fill="#156082" fill-rule="evenodd"/><text fill="#FFFFFF" font-family="DengXian,DengXian_MSFontService,sans-serif" font-weight="400" font-size="23" transform="matrix(1 0 0 1 2329.56 2183)">21</text><path d="M2301.65 2182.78C2281.7 2184.91 2261.68 2186.4 2241.63 2187.27" stroke="#156082" stroke-width="4.58333" stroke-miterlimit="8" fill="none" fill-rule="evenodd"/><path d="M2160.5 2171.17C2160.5 2166.38 2164.38 2162.5 2169.17 2162.5L2231.83 2162.5C2236.62 2162.5 2240.5 2166.38 2240.5 2171.17L2240.5 2205.83C2240.5 2210.62 2236.62 2214.5 2231.83 2214.5L2169.17 2214.5C2164.38 2214.5 2160.5 2210.62 2160.5 2205.83Z" stroke="#FFFFFF" stroke-width="6.875" stroke-miterlimit="8" fill="#156082" fill-rule="evenodd"/><text fill="#FFFFFF" font-family="DengXian,DengXian_MSFontService,sans-serif" font-weight="400" font-size="23" transform="matrix(1 0 0 1 2187.92 2193)">22</text><path d="M2160.01 2187.27C2139.96 2186.4 2119.94 2184.91 2099.99 2182.78" stroke="#156082" stroke-width="4.58333" stroke-miterlimit="8" fill="none" fill-rule="evenodd"/><path d="M2018.5 2160.17C2018.5 2155.38 2022.38 2151.5 2027.17 2151.5L2090.83 2151.5C2095.62 2151.5 2099.5 2155.38 2099.5 2160.17L2099.5 2194.83C2099.5 2199.62 2095.62 2203.5 2090.83 2203.5L2027.17 2203.5C2022.38 2203.5 2018.5 2199.62 2018.5 2194.83Z" stroke="#FFFFFF" stroke-width="6.875" stroke-miterlimit="8" fill="#156082" fill-rule="evenodd"/><text fill="#FFFFFF" font-family="DengXian,DengXian_MSFontService,sans-serif" font-weight="400" font-size="23" transform="matrix(1 0 0 1 2046.28 2183)">23</text><path d="M2018.4 2170.47C1999.3 2166.73 1980.32 2162.41 1961.48 2157.51" stroke="#156082" stroke-width="4.58333" stroke-miterlimit="8" fill="none" fill-rule="evenodd"/><path d="M1880.5 2128.33C1880.5 2123.45 1884.45 2119.5 1889.33 2119.5L1951.67 2119.5C1956.54 2119.5 1960.5 2123.45 1960.5 2128.33L1960.5 2163.67C1960.5 2168.55 1956.54 2172.5 1951.67 2172.5L1889.33 2172.5C1884.45 2172.5 1880.5 2168.55 1880.5 2163.67Z" stroke="#FFFFFF" stroke-width="6.875" stroke-miterlimit="8" fill="#156082" fill-rule="evenodd"/><text fill="#FFFFFF" font-family="DengXian,DengXian_MSFontService,sans-serif" font-weight="400" font-size="23" transform="matrix(1 0 0 1 1907.81 2151)">24</text><path d="M1879.99 2132.35C1862.87 2126.21 1845.94 2119.58 1829.2 2112.47" stroke="#156082" stroke-width="4.58333" stroke-miterlimit="8" fill="none" fill-rule="evenodd"/><path d="M1747.5 2077.17C1747.5 2072.38 1751.38 2068.5 1756.17 2068.5L1819.83 2068.5C1824.62 2068.5 1828.5 2072.38 1828.5 2077.17L1828.5 2111.83C1828.5 2116.62 1824.62 2120.5 1819.83 2120.5L1756.17 2120.5C1751.38 2120.5 1747.5 2116.62 1747.5 2111.83Z" stroke="#FFFFFF" stroke-width="6.875" stroke-miterlimit="8" fill="#156082" fill-rule="evenodd"/><text fill="#FFFFFF" font-family="DengXian,DengXian_MSFontService,sans-serif" font-weight="400" font-size="23" transform="matrix(1 0 0 1 1775.59 2099)">25</text><path d="M1747.87 2073.25C1733.74 2065.59 1719.82 2057.58 1706.1 2049.22" stroke="#156082" stroke-width="4.58333" stroke-miterlimit="8" fill="none" fill-rule="evenodd"/><path d="M1624.5 2006.17C1624.5 2001.38 1628.38 1997.5 1633.17 1997.5L1696.83 1997.5C1701.62 1997.5 1705.5 2001.38 1705.5 2006.17L1705.5 2040.83C1705.5 2045.62 1701.62 2049.5 1696.83 2049.5L1633.17 2049.5C1628.38 2049.5 1624.5 2045.62 1624.5 2040.83Z" stroke="#FFFFFF" stroke-width="6.875" stroke-miterlimit="8" fill="#156082" fill-rule="evenodd"/><text fill="#FFFFFF" font-family="DengXian,DengXian_MSFontService,sans-serif" font-weight="400" font-size="23" transform="matrix(1 0 0 1 1652.59 2028)">26</text><path d="M1628.58 1996.54C1613.45 1985.12 1598.66 1973.26 1584.23 1960.96" stroke="#156082" stroke-width="4.58333" stroke-miterlimit="8" fill="none" fill-rule="evenodd"/><path d="M1513.5 1917.17C1513.5 1912.38 1517.38 1908.5 1522.17 1908.5L1585.83 1908.5C1590.62 1908.5 1594.5 1912.38 1594.5 1917.17L1594.5 1951.83C1594.5 1956.62 1590.62 1960.5 1585.83 1960.5L1522.17 1960.5C1517.38 1960.5 1513.5 1956.62 1513.5 1951.83Z" stroke="#FFFFFF" stroke-width="6.875" stroke-miterlimit="8" fill="#156082" fill-rule="evenodd"/><text fill="#FFFFFF" font-family="DengXian,DengXian_MSFontService,sans-serif" font-weight="400" font-size="23" transform="matrix(1 0 0 1 1541.54 1940)">27</text><path d="M1526.88 1907.83C1510.61 1891.46 1494.94 1874.51 1479.9 1857" stroke="#156082" stroke-width="4.58333" stroke-miterlimit="8" fill="none" fill-rule="evenodd"/><path d="M1417.5 1813.17C1417.5 1808.38 1421.38 1804.5 1426.17 1804.5L1488.83 1804.5C1493.62 1804.5 1497.5 1808.38 1497.5 1813.17L1497.5 1847.83C1497.5 1852.62 1493.62 1856.5 1488.83 1856.5L1426.17 1856.5C1421.38 1856.5 1417.5 1852.62 1417.5 1847.83Z" stroke="#FFFFFF" stroke-width="6.875" stroke-miterlimit="8" fill="#156082" fill-rule="evenodd"/><text fill="#FFFFFF" font-family="DengXian,DengXian_MSFontService,sans-serif" font-weight="400" font-size="23" transform="matrix(1 0 0 1 1444.93 1836)">28</text><path d="M1437.26 1803.58C1421.94 1782.91 1407.47 1761.62 1393.88 1739.78" stroke="#156082" stroke-width="4.58333" stroke-miterlimit="8" fill="none" fill-rule="evenodd"/><path d="M1337.5 1696.17C1337.5 1691.38 1341.38 1687.5 1346.17 1687.5L1408.83 1687.5C1413.62 1687.5 1417.5 1691.38 1417.5 1696.17L1417.5 1730.83C1417.5 1735.62 1413.62 1739.5 1408.83 1739.5L1346.17 1739.5C1341.38 1739.5 1337.5 1735.62 1337.5 1730.83Z" stroke="#FFFFFF" stroke-width="6.875" stroke-miterlimit="8" fill="#156082" fill-rule="evenodd"/><text fill="#FFFFFF" font-family="DengXian,DengXian_MSFontService,sans-serif" font-weight="400" font-size="23" transform="matrix(1 0 0 1 1364.92 1718)">29</text><path d="M1362.88 1686.11C1349.93 1661.91 1338.03 1637.15 1327.23 1611.91" stroke="#156082" stroke-width="4.58333" stroke-miterlimit="8" fill="none" fill-rule="evenodd"/><path d="M1275.5 1568.17C1275.5 1563.38 1279.38 1559.5 1284.17 1559.5L1347.83 1559.5C1352.62 1559.5 1356.5 1563.38 1356.5 1568.17L1356.5 1602.83C1356.5 1607.62 1352.62 1611.5 1347.83 1611.5L1284.17 1611.5C1279.38 1611.5 1275.5 1607.62 1275.5 1602.83Z" stroke="#FFFFFF" stroke-width="6.875" stroke-miterlimit="8" fill="#156082" fill-rule="evenodd"/><text fill="#FFFFFF" font-family="DengXian,DengXian_MSFontService,sans-serif" font-weight="400" font-size="23" transform="matrix(1 0 0 1 1303.29 1590)">30</text><path d="M1306.08 1558.06C1296.46 1531.19 1288.06 1503.89 1280.9 1476.26" stroke="#156082" stroke-width="4.58333" stroke-miterlimit="8" fill="none" fill-rule="evenodd"/><path d="M1233.5 1432.17C1233.5 1427.38 1237.38 1423.5 1242.17 1423.5L1305.83 1423.5C1310.62 1423.5 1314.5 1427.38 1314.5 1432.17L1314.5 1466.83C1314.5 1471.62 1310.62 1475.5 1305.83 1475.5L1242.17 1475.5C1237.38 1475.5 1233.5 1471.62 1233.5 1466.83Z" stroke="#FFFFFF" stroke-width="6.875" stroke-miterlimit="8" fill="#156082" fill-rule="evenodd"/><text fill="#FFFFFF" font-family="DengXian,DengXian_MSFontService,sans-serif" font-weight="400" font-size="23" transform="matrix(1 0 0 1 1261.43 1455)">31</text><path d="M1268.58 1422.29C1262.92 1393.69 1258.58 1364.85 1255.57 1335.85" stroke="#156082" stroke-width="4.58333" stroke-miterlimit="8" fill="none" fill-rule="evenodd"/><path d="M1212.5 1291.33C1212.5 1286.45 1216.45 1282.5 1221.33 1282.5L1284.67 1282.5C1289.55 1282.5 1293.5 1286.45 1293.5 1291.33L1293.5 1326.67C1293.5 1331.55 1289.55 1335.5 1284.67 1335.5L1221.33 1335.5C1216.45 1335.5 1212.5 1331.55 1212.5 1326.67Z" stroke="#FFFFFF" stroke-width="6.875" stroke-miterlimit="8" fill="#156082" fill-rule="evenodd"/><text fill="#FFFFFF" font-family="DengXian,DengXian_MSFontService,sans-serif" font-weight="400" font-size="23" transform="matrix(1 0 0 1 1240.26 1314)">32</text><path d="M1251.52 1281.82C1250.16 1252.5 1250.16 1223.14 1251.52 1193.83" stroke="#156082" stroke-width="4.58333" stroke-miterlimit="8" fill="none" fill-rule="evenodd"/><path d="M1212.5 1149.33C1212.5 1144.45 1216.45 1140.5 1221.33 1140.5L1284.67 1140.5C1289.55 1140.5 1293.5 1144.45 1293.5 1149.33L1293.5 1184.67C1293.5 1189.55 1289.55 1193.5 1284.67 1193.5L1221.33 1193.5C1216.45 1193.5 1212.5 1189.55 1212.5 1184.67Z" stroke="#FFFFFF" stroke-width="6.875" stroke-miterlimit="8" fill="#156082" fill-rule="evenodd"/><text fill="#FFFFFF" font-family="DengXian,DengXian_MSFontService,sans-serif" font-weight="400" font-size="23" transform="matrix(1 0 0 1 1240.26 1172)">33</text><path d="M1255.57 1139.79C1258.58 1110.79 1262.92 1081.95 1268.57 1053.36" stroke="#156082" stroke-width="4.58333" stroke-miterlimit="8" fill="none" fill-rule="evenodd"/><path d="M1233.5 1009.17C1233.5 1004.38 1237.38 1000.5 1242.17 1000.5L1305.83 1000.5C1310.62 1000.5 1314.5 1004.38 1314.5 1009.17L1314.5 1043.83C1314.5 1048.62 1310.62 1052.5 1305.83 1052.5L1242.17 1052.5C1237.38 1052.5 1233.5 1048.62 1233.5 1043.83Z" stroke="#FFFFFF" stroke-width="6.875" stroke-miterlimit="8" fill="#156082" fill-rule="evenodd"/><text fill="#FFFFFF" font-family="DengXian,DengXian_MSFontService,sans-serif" font-weight="400" font-size="23" transform="matrix(1 0 0 1 1261.43 1032)">34</text><path d="M1280.9 999.383C1288.06 971.75 1296.46 944.454 1306.08 917.578" stroke="#156082" stroke-width="4.58333" stroke-miterlimit="8" fill="none" fill-rule="evenodd"/><path d="M1275.5 873.167C1275.5 868.38 1279.38 864.5 1284.17 864.5L1347.83 864.5C1352.62 864.5 1356.5 868.38 1356.5 873.167L1356.5 907.833C1356.5 912.62 1352.62 916.5 1347.83 916.5L1284.17 916.5C1279.38 916.5 1275.5 912.62 1275.5 907.833Z" stroke="#FFFFFF" stroke-width="6.875" stroke-miterlimit="8" fill="#156082" fill-rule="evenodd"/><text fill="#FFFFFF" font-family="DengXian,DengXian_MSFontService,sans-serif" font-weight="400" font-size="23" transform="matrix(1 0 0 1 1303.29 896)">35</text><path d="M1327.23 863.731C1338.03 838.493 1349.93 813.735 1362.88 789.527" stroke="#156082" stroke-width="4.58333" stroke-miterlimit="8" fill="none" fill-rule="evenodd"/><path d="M1337.5 745.167C1337.5 740.38 1341.38 736.5 1346.17 736.5L1408.83 736.5C1413.62 736.5 1417.5 740.38 1417.5 745.167L1417.5 779.833C1417.5 784.62 1413.62 788.5 1408.83 788.5L1346.17 788.5C1341.38 788.5 1337.5 784.62 1337.5 779.833Z" stroke="#FFFFFF" stroke-width="6.875" stroke-miterlimit="8" fill="#156082" fill-rule="evenodd"/><text fill="#FFFFFF" font-family="DengXian,DengXian_MSFontService,sans-serif" font-weight="400" font-size="23" transform="matrix(1 0 0 1 1364.92 768)">36</text><path d="M1393.88 735.866C1407.47 714.02 1421.94 692.735 1437.26 672.063" stroke="#156082" stroke-width="4.58333" stroke-miterlimit="8" fill="none" fill-rule="evenodd"/><path d="M1417.5 628.167C1417.5 623.38 1421.38 619.5 1426.17 619.5L1488.83 619.5C1493.62 619.5 1497.5 623.38 1497.5 628.167L1497.5 662.833C1497.5 667.619 1493.62 671.5 1488.83 671.5L1426.17 671.5C1421.38 671.5 1417.5 667.619 1417.5 662.833Z" stroke="#FFFFFF" stroke-width="6.875" stroke-miterlimit="8" fill="#156082" fill-rule="evenodd"/><text fill="#FFFFFF" font-family="DengXian,DengXian_MSFontService,sans-serif" font-weight="400" font-size="23" transform="matrix(1 0 0 1 1444.93 651)">37</text><path d="M1479.9 618.644C1494.94 601.135 1510.61 584.18 1526.88 567.813" stroke="#156082" stroke-width="4.58333" stroke-miterlimit="8" fill="none" fill-rule="evenodd"/><path d="M1513.5 524.167C1513.5 519.38 1517.38 515.5 1522.17 515.5L1585.83 515.5C1590.62 515.5 1594.5 519.38 1594.5 524.167L1594.5 558.833C1594.5 563.62 1590.62 567.5 1585.83 567.5L1522.17 567.5C1517.38 567.5 1513.5 563.62 1513.5 558.833Z" stroke="#FFFFFF" stroke-width="6.875" stroke-miterlimit="8" fill="#156082" fill-rule="evenodd"/><text fill="#FFFFFF" font-family="DengXian,DengXian_MSFontService,sans-serif" font-weight="400" font-size="23" transform="matrix(1 0 0 1 1541.54 547)">38</text><path d="M1584.23 514.684C1598.66 502.384 1613.45 490.519 1628.58 479.104" stroke="#156082" stroke-width="4.58333" stroke-miterlimit="8" fill="none" fill-rule="evenodd"/><path d="M1624.5 435.167C1624.5 430.38 1628.38 426.5 1633.17 426.5L1696.83 426.5C1701.62 426.5 1705.5 430.38 1705.5 435.167L1705.5 469.833C1705.5 474.62 1701.62 478.5 1696.83 478.5L1633.17 478.5C1628.38 478.5 1624.5 474.62 1624.5 469.833Z" stroke="#FFFFFF" stroke-width="6.875" stroke-miterlimit="8" fill="#156082" fill-rule="evenodd"/><text fill="#FFFFFF" font-family="DengXian,DengXian_MSFontService,sans-serif" font-weight="400" font-size="23" transform="matrix(1 0 0 1 1652.59 458)">39</text><path d="M1706.1 426.426C1719.82 418.063 1733.74 410.049 1747.87 402.392" stroke="#156082" stroke-width="4.58333" stroke-miterlimit="8" fill="none" fill-rule="evenodd"/><path d="M1747.5 364.167C1747.5 359.38 1751.38 355.5 1756.17 355.5L1819.83 355.5C1824.62 355.5 1828.5 359.38 1828.5 364.167L1828.5 398.833C1828.5 403.619 1824.62 407.5 1819.83 407.5L1756.17 407.5C1751.38 407.5 1747.5 403.619 1747.5 398.833Z" stroke="#FFFFFF" stroke-width="6.875" stroke-miterlimit="8" fill="#156082" fill-rule="evenodd"/><text fill="#FFFFFF" font-family="DengXian,DengXian_MSFontService,sans-serif" font-weight="400" font-size="23" transform="matrix(1 0 0 1 1775.59 387)">40</text><path d="M1829.2 363.174C1845.94 356.063 1862.87 349.433 1879.99 343.294" stroke="#156082" stroke-width="4.58333" stroke-miterlimit="8" fill="none" fill-rule="evenodd"/><path d="M1880.5 312.334C1880.5 307.455 1884.45 303.5 1889.33 303.5L1951.67 303.5C1956.54 303.5 1960.5 307.455 1960.5 312.334L1960.5 347.666C1960.5 352.545 1956.54 356.5 1951.67 356.5L1889.33 356.5C1884.45 356.5 1880.5 352.545 1880.5 347.666Z" stroke="#FFFFFF" stroke-width="6.875" stroke-miterlimit="8" fill="#156082" fill-rule="evenodd"/><text fill="#FFFFFF" font-family="DengXian,DengXian_MSFontService,sans-serif" font-weight="400" font-size="23" transform="matrix(1 0 0 1 1907.81 335)">41</text><path d="M1961.48 318.133C1980.32 313.231 1999.3 308.908 2018.4 305.172" stroke="#156082" stroke-width="4.58333" stroke-miterlimit="8" fill="none" fill-rule="evenodd"/><path d="M2018.5 281.167C2018.5 276.38 2022.38 272.5 2027.17 272.5L2090.83 272.5C2095.62 272.5 2099.5 276.38 2099.5 281.167L2099.5 315.833C2099.5 320.62 2095.62 324.5 2090.83 324.5L2027.17 324.5C2022.38 324.5 2018.5 320.62 2018.5 315.833Z" stroke="#FFFFFF" stroke-width="6.875" stroke-miterlimit="8" fill="#156082" fill-rule="evenodd"/><text fill="#FFFFFF" font-family="DengXian,DengXian_MSFontService,sans-serif" font-weight="400" font-size="23" transform="matrix(1 0 0 1 2046.28 303)">42</text><path d="M2099.99 292.864C2119.94 290.735 2139.96 289.238 2160.01 288.376" stroke="#156082" stroke-width="4.58333" stroke-miterlimit="8" fill="none" fill-rule="evenodd"/><path d="M2203.9 316.973 2479.72 2094.84 2472.93 2095.9 2197.1 318.027ZM2489.21 2088.74 2479.84 2118.03 2462.04 2092.96Z" fill="#156082"/><path d="M2343.49 324.809 3035.64 1549.6 3029.66 1552.98 2337.51 328.191ZM3042.36 1540.53 3043.92 1571.24 3018.42 1554.06Z" fill="#156082"/><path d="M3.42805-0.25475 5.46605 27.1696-1.39005 27.6791-3.42805 0.25475ZM6.99455 47.7379 9.03255 75.1623 2.17646 75.6718 0.138456 48.2474ZM10.5611 95.7306 12.5991 123.155 5.74296 123.664 3.70496 96.2401ZM14.1276 143.723 16.1656 171.148 9.30947 171.657 7.27146 144.233ZM17.6941 191.716 19.7321 219.14 12.876 219.65 10.838 192.225ZM21.2606 239.709 23.2986 267.133 16.4425 267.642 14.4045 240.218ZM24.8271 287.701 26.8651 315.126 20.009 315.635 17.971 288.211ZM28.3936 335.694 30.4316 363.118 23.5755 363.628 21.5375 336.203ZM31.9601 383.687 33.9981 411.111 27.142 411.62 25.104 384.196ZM35.5266 431.679 37.5646 459.104 30.7085 459.613 28.6705 432.189ZM39.0931 479.672 41.1311 507.096 34.275 507.606 32.237 480.181ZM42.6596 527.665 44.6976 555.089 37.8415 555.599 35.8035 528.174ZM46.2261 575.657 48.2641 603.082 41.408 603.591 39.37 576.167ZM49.7926 623.65 51.8306 651.074 44.9745 651.584 42.9365 624.159ZM53.3591 671.643 55.3971 699.067 48.541 699.577 46.503 672.152ZM56.9256 719.635 58.9636 747.06 52.1075 747.569 50.0695 720.145ZM60.4921 767.628 62.5301 795.052 55.674 795.562 53.636 768.138ZM64.0586 815.621 66.0966 843.045 59.2405 843.555 57.2025 816.13ZM67.6251 863.613 69.6631 891.038 62.807 891.547 60.769 864.123ZM71.1916 911.606 73.2296 939.03 66.3735 939.54 64.3355 912.116ZM74.7581 959.599 76.7961 987.023 69.94 987.533 67.902 960.108ZM78.3246 1007.59 80.3626 1035.02 73.5065 1035.53 71.4685 1008.1ZM81.8911 1055.58 83.9291 1083.01 77.073 1083.52 75.035 1056.09ZM85.4576 1103.58 87.4957 1131 80.6396 1131.51 78.6015 1104.09ZM89.0242 1151.57 91.0622 1178.99 84.2061 1179.5 82.1681 1152.08ZM92.5907 1199.56 94.6287 1226.99 87.7726 1227.5 85.7346 1200.07ZM96.1572 1247.55 98.1952 1274.98 91.3391 1275.49 89.3011 1248.06ZM99.7237 1295.55 101.762 1322.97 94.9056 1323.48 92.8676 1296.06ZM103.29 1343.54 105.328 1370.96 98.4721 1371.47 96.4341 1344.05ZM106.857 1391.53 108.895 1418.96 102.039 1419.47 100.001 1392.04ZM110.423 1439.53 112.461 1466.95 105.605 1467.46 103.567 1440.03ZM113.99 1487.52 116.028 1514.94 109.172 1515.45 107.134 1488.03ZM117.556 1535.51 119.594 1562.93 112.738 1563.44 110.7 1536.02ZM121.123 1583.5 123.161 1610.93 116.305 1611.44 114.267 1584.01ZM124.689 1631.5 126.727 1658.92 119.871 1659.43 117.833 1632.01ZM128.256 1679.49 130.294 1706.91 123.438 1707.42 121.4 1680ZM131.822 1727.48 133.86 1754.91 127.004 1755.42 124.966 1727.99ZM144.832 1763.4 133.158 1791.84 117.408 1765.44Z" fill="#156082" transform="matrix(-1 0 0 1 2479.66 358.5)"/><path d="M2500.91 359.036 2504.62 386.284 2497.81 387.212 2494.09 359.964ZM2507.4 406.72 2511.12 433.968 2504.31 434.897 2500.59 407.648ZM2513.9 454.404 2517.62 481.652 2510.8 482.581 2507.09 455.333ZM2520.4 502.089 2524.11 529.337 2517.3 530.265 2513.59 503.017ZM2526.9 549.773 2530.61 577.021 2523.8 577.949 2520.09 550.701ZM2533.4 597.457 2537.11 624.705 2530.3 625.633 2526.59 598.385ZM2539.9 645.141 2543.61 672.389 2536.8 673.318 2533.08 646.07ZM2546.4 692.825 2550.11 720.073 2543.3 721.002 2539.58 693.754ZM2552.89 740.51 2556.61 767.758 2549.8 768.686 2546.08 741.438ZM2559.39 788.194 2563.11 815.442 2556.29 816.37 2552.58 789.122ZM2565.89 835.878 2569.6 863.126 2562.79 864.055 2559.08 836.806ZM2572.39 883.562 2576.1 910.81 2569.29 911.739 2565.58 884.491ZM2578.89 931.246 2582.6 958.495 2575.79 959.423 2572.08 932.175ZM2585.39 978.931 2589.1 1006.18 2582.29 1007.11 2578.57 979.859ZM2591.89 1026.61 2595.6 1053.86 2588.79 1054.79 2585.07 1027.54ZM2598.38 1074.3 2602.1 1101.55 2595.29 1102.48 2591.57 1075.23ZM2604.88 1121.98 2608.6 1149.23 2601.78 1150.16 2598.07 1122.91ZM2611.38 1169.67 2615.09 1196.92 2608.28 1197.84 2604.57 1170.6ZM2617.88 1217.35 2621.59 1244.6 2614.78 1245.53 2611.07 1218.28ZM2624.38 1265.04 2628.09 1292.28 2621.28 1293.21 2617.57 1265.96ZM2630.88 1312.72 2634.59 1339.97 2627.78 1340.9 2624.06 1313.65ZM2637.38 1360.4 2641.09 1387.65 2634.28 1388.58 2630.56 1361.33ZM2643.87 1408.09 2647.59 1435.34 2640.78 1436.26 2637.06 1409.02ZM2650.37 1455.77 2654.09 1483.02 2647.27 1483.95 2643.56 1456.7ZM2656.87 1503.46 2660.58 1530.7 2653.77 1531.63 2650.06 1504.39ZM2663.37 1551.14 2667.08 1578.39 2660.27 1579.32 2656.56 1552.07ZM2669.87 1598.83 2673.58 1626.07 2666.77 1627 2663.06 1599.75ZM2676.37 1646.51 2680.08 1673.76 2673.27 1674.69 2669.55 1647.44ZM2682.87 1694.19 2686.58 1721.44 2679.77 1722.37 2676.05 1695.12ZM2689.36 1741.88 2693.08 1769.13 2686.27 1770.05 2682.55 1742.81ZM2695.86 1789.56 2699.58 1816.81 2692.76 1817.74 2689.05 1790.49ZM2702.36 1837.25 2706.07 1864.49 2699.26 1865.42 2695.55 1838.17ZM2708.86 1884.93 2712.57 1912.18 2705.76 1913.11 2702.05 1885.86ZM2715.36 1932.61 2719.07 1959.86 2712.26 1960.79 2708.55 1933.54ZM2730.31 1965.92 2720.39 1995.03 2703.06 1969.63Z" fill="#156082"/><path d="M0.471939-3.40495 27.7115 0.370559 26.7677 7.18046-0.471939 3.40495ZM48.1412 3.20219 75.3808 6.9777 74.4369 13.7876 47.1973 10.0121ZM95.8105 9.80933 123.05 13.5848 122.106 20.3947 94.8666 16.6192ZM143.48 16.4165 170.719 20.192 169.776 27.0019 142.536 23.2264ZM191.149 23.0236 218.389 26.7991 217.445 33.609 190.205 29.8335ZM238.818 29.6308 266.058 33.4063 265.114 40.2162 237.874 36.4407ZM286.488 36.2379 313.727 40.0134 312.783 46.8233 285.544 43.0478ZM334.157 42.845 361.397 46.6205 360.453 53.4304 333.213 49.6549ZM381.826 49.4522 409.066 53.2277 408.122 60.0376 380.882 56.2621ZM429.496 56.0593 456.735 59.8348 455.791 66.6447 428.552 62.8692ZM477.165 62.6664 504.404 66.442 503.461 73.2519 476.221 69.4763ZM524.834 69.2736 552.074 73.0491 551.13 79.859 523.89 76.0835ZM572.503 75.8807 599.743 79.6562 598.799 86.4661 571.56 82.6906ZM620.173 82.4879 647.412 86.2634 646.468 93.0733 619.229 89.2978ZM667.842 89.095 695.082 92.8705 694.138 99.6804 666.898 95.9049ZM715.511 95.7021 742.751 99.4777 741.807 106.288 714.567 102.512ZM763.181 102.309 790.42 106.085 789.476 112.895 762.237 109.119ZM810.85 108.916 838.09 112.692 837.146 119.502 809.906 115.726ZM858.519 115.524 885.759 119.299 884.815 126.109 857.575 122.333ZM906.189 122.131 933.428 125.906 932.484 132.716 905.245 128.941ZM953.858 128.738 981.097 132.513 980.154 139.323 952.914 135.548ZM1001.53 135.345 1028.77 139.12 1027.82 145.93 1000.58 142.155ZM1049.2 141.952 1076.44 145.728 1075.49 152.538 1048.25 148.762ZM1096.87 148.559 1124.11 152.335 1123.16 159.145 1095.92 155.369ZM1144.53 155.166 1171.77 158.942 1170.83 165.752 1143.59 161.976ZM1192.2 161.774 1219.44 165.549 1218.5 172.359 1191.26 168.583ZM1239.87 168.381 1267.11 172.156 1266.17 178.966 1238.93 175.191ZM1287.54 174.988 1314.78 178.763 1313.84 185.573 1286.6 181.798ZM1335.21 181.595 1362.45 185.37 1361.51 192.18 1334.27 188.405ZM1382.88 188.202 1387.51 188.844 1386.57 195.654 1381.94 195.012ZM1384.38 177.999 1409.74 195.395 1380.61 205.239Z" fill="#156082" transform="matrix(-1 0 0 1 2828.24 572.5)"/><path d="M3.41181-0.41945 141.01 1118.81 134.187 1119.65-3.41181 0.41945ZM150.686 1113 140.395 1141.97 123.392 1116.36Z" fill="#156082" transform="matrix(-1 0 0 1 2980.89 771.5)"/><path d="M7.35725e-07-3.4375 27.5-3.43749 27.5 3.43751-7.35725e-07 3.4375ZM48.125-3.43749 75.625-3.43748 75.625 3.43752 48.125 3.43751ZM96.25-3.43748 123.75-3.43747 123.75 3.43753 96.25 3.43752ZM144.375-3.43747 171.875-3.43746 171.875 3.43754 144.375 3.43753ZM192.5-3.43746 220-3.43745 220 3.43755 192.5 3.43754ZM240.625-3.43745 268.125-3.43744 268.125 3.43756 240.625 3.43755ZM288.75-3.43744 316.25-3.43743 316.25 3.43757 288.75 3.43756ZM336.875-3.43743 364.375-3.43742 364.375 3.43758 336.875 3.43757ZM385-3.43742 412.5-3.43741 412.5 3.43759 385 3.43758ZM433.125-3.43741 460.625-3.4374 460.625 3.4376 433.125 3.43759ZM481.25-3.4374 508.75-3.43739 508.75 3.43761 481.25 3.4376ZM529.375-3.43739 556.875-3.43738 556.875 3.43762 529.375 3.43761ZM577.5-3.43738 605-3.43737 605 3.43763 577.5 3.43762ZM625.625-3.43737 653.125-3.43736 653.125 3.43764 625.625 3.43763ZM673.75-3.43736 701.25-3.43735 701.25 3.43765 673.75 3.43764ZM721.875-3.43735 749.375-3.43734 749.375 3.43766 721.875 3.43765ZM770-3.43734 797.5-3.43733 797.5 3.43767 770 3.43766ZM818.125-3.43732 845.625-3.43732 845.625 3.43768 818.125 3.43768ZM866.25-3.43731 893.75-3.43731 893.75 3.43769 866.25 3.43769ZM914.375-3.4373 941.875-3.4373 941.875 3.4377 914.375 3.4377ZM962.5-3.43729 990-3.43729 990 3.43771 962.5 3.43771ZM1010.62-3.43728 1038.12-3.43728 1038.12 3.43772 1010.62 3.43772ZM1058.75-3.43727 1086.25-3.43727 1086.25 3.43773 1058.75 3.43773ZM1106.88-3.43726 1134.38-3.43726 1134.38 3.43774 1106.88 3.43774ZM1155-3.43725 1182.5-3.43725 1182.5 3.43775 1155 3.43775ZM1203.12-3.43724 1230.62-3.43724 1230.62 3.43776 1203.12 3.43776ZM1251.25-3.43723 1278.75-3.43723 1278.75 3.43777 1251.25 3.43777ZM1299.38-3.43722 1326.88-3.43722 1326.88 3.43778 1299.38 3.43778ZM1347.5-3.43721 1375-3.43721 1375 3.43779 1347.5 3.43779ZM1395.62-3.4372 1423.12-3.4372 1423.12 3.4378 1395.62 3.4378ZM1443.75-3.43719 1471.25-3.43719 1471.25 3.43781 1443.75 3.43781ZM1491.88-3.43718 1519.38-3.43717 1519.38 3.43783 1491.88 3.43782ZM1540-3.43717 1567.5-3.43716 1567.5 3.43784 1540 3.43783ZM1588.12-3.43716 1615.62-3.43715 1615.62 3.43785 1588.12 3.43784ZM1636.25-3.43715 1663.27-3.43714 1663.27 3.43786 1636.25 3.43785ZM1658.68-13.7496 1686.18 0.000360892 1658.68 13.7504Z" fill="#156082" transform="matrix(-1 0 0 1 3044.68 893.5)"/><path d="M3.00793-1.66396 16.3196 22.3995 10.3038 25.7274-3.00793 1.66396ZM26.3034 40.4471 29.6313 46.4629 23.6154 49.7908 20.2875 43.775ZM39.6151 64.5105 52.9268 88.5739 46.9109 91.9018 33.5992 67.8384ZM62.9105 106.621 66.2384 112.637 60.2226 115.965 56.8947 109.949ZM76.2222 130.685 89.5339 154.748 83.518 158.076 70.2064 134.013ZM99.5177 172.796 102.846 178.812 96.8297 182.14 93.5018 176.124ZM112.829 196.859 126.141 220.923 120.125 224.251 106.813 200.187ZM136.125 238.97 139.453 244.986 133.437 248.314 130.109 242.298ZM149.436 263.034 162.748 287.097 156.732 290.425 143.421 266.362ZM172.732 305.145 176.06 311.161 170.044 314.489 166.716 308.473ZM186.044 329.208 199.355 353.272 193.339 356.6 180.028 332.536ZM209.339 371.319 212.667 377.335 206.651 380.663 203.323 374.647ZM222.651 395.383 235.962 419.446 229.947 422.774 216.635 398.711ZM245.946 437.494 249.274 443.51 243.258 446.838 239.93 440.822ZM259.258 461.557 272.57 485.621 266.554 488.949 253.242 464.885ZM282.553 503.668 285.881 509.684 279.865 513.012 276.538 506.996ZM295.865 527.732 309.177 551.795 303.161 555.123 289.849 531.06ZM319.161 569.843 322.488 575.859 316.473 579.187 313.145 573.171ZM332.472 593.906 345.784 617.97 339.768 621.297 326.456 597.234ZM355.768 636.017 359.096 642.033 353.08 645.361 349.752 639.345ZM369.079 660.081 382.391 684.144 376.375 687.472 363.064 663.409ZM392.375 702.192 395.703 708.207 389.687 711.535 386.359 705.52ZM405.687 726.255 418.998 750.318 412.982 753.646 399.671 729.583ZM428.982 768.366 432.31 774.382 426.294 777.71 422.966 771.694ZM442.294 792.43 455.605 816.493 449.59 819.821 436.278 795.758ZM465.589 834.541 468.917 840.556 462.901 843.884 459.573 837.869ZM478.901 858.604 492.213 882.667 486.197 885.995 472.885 861.932ZM502.196 900.715 505.524 906.731 499.508 910.059 496.18 904.043ZM515.508 924.779 528.82 948.842 522.804 952.17 509.492 928.107ZM538.803 966.889 542.131 972.905 536.115 976.233 532.788 970.217ZM552.115 990.953 565.427 1015.02 559.411 1018.34 546.099 994.281ZM575.41 1033.06 578.738 1039.08 572.723 1042.41 569.395 1036.39ZM588.722 1057.13 594.021 1066.71 588.005 1070.03 582.706 1060.46ZM600.825 1057.7 602.105 1088.42 576.762 1071.01Z" fill="#156082" transform="matrix(-1 0 0 1 3081.61 1029.5)"/><path d="M3.22651-1.18576 270.321 725.593 263.868 727.964-3.22651 1.18576ZM278.42 717.734 275 748.289 252.608 727.22Z" fill="#156082" transform="matrix(-1 0 0 1 3115.5 1165.5)"/><path d="M2614 2063.82 2601.22 2010.33 2607.91 2008.73 2620.69 2062.23ZM2596.43 1990.27 2594.84 1983.58 2601.52 1981.98 2603.12 1988.67ZM2590.05 1963.52 2577.27 1910.02 2583.96 1908.43 2596.73 1961.92ZM2572.48 1889.96 2570.88 1883.28 2577.57 1881.68 2579.17 1888.37ZM2566.09 1863.22 2553.32 1809.72 2560 1808.12 2572.78 1861.62ZM2548.53 1789.66 2546.93 1782.97 2553.62 1781.38 2555.21 1788.06ZM2542.14 1762.91 2529.36 1709.42 2536.05 1707.82 2548.83 1761.31ZM2524.57 1689.35 2522.98 1682.67 2529.66 1681.07 2531.26 1687.76ZM2518.19 1662.61 2505.41 1609.11 2512.1 1607.51 2524.87 1661.01ZM2500.62 1589.05 2499.02 1582.36 2505.71 1580.77 2507.31 1587.45ZM2494.23 1562.3 2481.46 1508.81 2488.14 1507.21 2500.92 1560.71ZM2476.67 1488.75 2475.07 1482.06 2481.76 1480.46 2483.35 1487.15ZM2470.28 1462 2457.5 1408.5 2464.19 1406.91 2476.97 1460.4ZM2452.71 1388.44 2451.12 1381.75 2457.8 1380.16 2459.4 1386.84ZM2446.33 1361.69 2433.55 1308.2 2440.24 1306.6 2453.01 1360.1ZM2428.76 1288.14 2427.16 1281.45 2433.85 1279.85 2435.45 1286.54ZM2422.37 1261.39 2409.6 1207.89 2416.28 1206.3 2429.06 1259.79ZM2404.81 1187.83 2403.21 1181.14 2409.9 1179.55 2411.49 1186.23ZM2398.42 1161.08 2385.64 1107.59 2392.33 1105.99 2405.11 1159.49ZM2380.85 1087.53 2379.26 1080.84 2385.94 1079.24 2387.54 1085.93ZM2374.47 1060.78 2361.69 1007.28 2368.38 1005.69 2381.15 1059.18ZM2356.9 987.223 2355.3 980.536 2361.99 978.939 2363.59 985.626ZM2350.51 960.475 2337.74 906.979 2344.42 905.382 2357.2 958.878ZM2332.95 886.918 2331.35 880.231 2338.04 878.634 2339.63 885.321ZM2326.56 860.17 2313.78 806.675 2320.47 805.078 2333.25 858.573ZM2308.99 786.614 2307.4 779.927 2314.08 778.33 2315.68 785.017ZM2302.61 759.866 2289.83 706.37 2296.52 704.773 2309.29 758.269ZM2285.04 686.309 2283.44 679.622 2290.13 678.025 2291.73 684.712ZM2278.65 659.561 2265.88 606.065 2272.56 604.469 2285.34 657.964ZM2261.09 586.005 2259.49 579.318 2266.18 577.721 2267.77 584.408ZM2254.7 559.257 2241.92 505.761 2248.61 504.164 2261.39 557.66ZM2237.13 485.7 2235.54 479.013 2242.22 477.416 2243.82 484.103ZM2230.75 458.952 2217.97 405.456 2224.66 403.859 2237.43 457.355ZM2213.18 385.395 2211.58 378.708 2218.27 377.111 2219.87 383.798ZM2206.79 358.648 2202.48 340.586 2209.17 338.989 2213.48 357.051ZM2193.51 347.442 2200.5 317.5 2220.26 341.054Z" fill="#156082"/><path d="M2183.74 2146.52 2149.75 2103.28 2155.16 2099.03 2189.14 2142.28ZM2137.01 2087.07 2132.76 2081.66 2138.16 2077.41 2142.41 2082.82ZM2120.01 2065.45 2086.02 2022.21 2091.43 2017.96 2125.42 2061.2ZM2073.28 2005.99 2069.03 2000.58 2074.44 1996.34 2078.68 2001.74ZM2056.29 1984.37 2022.3 1941.13 2027.7 1936.88 2061.69 1980.12ZM2009.55 1924.91 2005.3 1919.51 2010.71 1915.26 2014.96 1920.66ZM1992.56 1903.29 1958.57 1860.05 1963.98 1855.8 1997.96 1899.04ZM1945.83 1843.83 1941.58 1838.43 1946.98 1834.18 1951.23 1839.58ZM1928.83 1822.21 1894.84 1778.97 1900.25 1774.72 1934.24 1817.96ZM1882.1 1762.76 1877.85 1757.35 1883.26 1753.1 1887.5 1758.51ZM1865.11 1741.13 1831.12 1697.89 1836.52 1693.64 1870.51 1736.89ZM1818.37 1681.68 1814.12 1676.27 1819.53 1672.02 1823.78 1677.43ZM1801.38 1660.06 1767.39 1616.81 1772.8 1612.57 1806.78 1655.81ZM1754.65 1600.6 1750.4 1595.19 1755.8 1590.95 1760.05 1596.35ZM1737.65 1578.98 1703.66 1535.74 1709.07 1531.49 1743.06 1574.73ZM1690.92 1519.52 1686.67 1514.12 1692.08 1509.87 1696.32 1515.27ZM1673.92 1497.9 1639.94 1454.66 1645.34 1450.41 1679.33 1493.65ZM1627.19 1438.44 1622.94 1433.04 1628.35 1428.79 1632.6 1434.19ZM1610.2 1416.82 1576.21 1373.58 1581.62 1369.33 1615.6 1412.57ZM1563.46 1357.36 1559.22 1351.96 1564.62 1347.71 1568.87 1353.12ZM1546.47 1335.74 1512.48 1292.5 1517.89 1288.25 1551.88 1331.5ZM1499.74 1276.29 1495.49 1270.88 1500.89 1266.63 1505.14 1272.04ZM1482.74 1254.67 1448.76 1211.42 1454.16 1207.18 1488.15 1250.42ZM1436.01 1195.21 1431.76 1189.8 1437.17 1185.55 1441.42 1190.96ZM1419.02 1173.59 1385.03 1130.35 1390.44 1126.1 1424.42 1169.34ZM1372.28 1114.13 1368.04 1108.73 1373.44 1104.48 1377.69 1109.88ZM1355.29 1092.51 1334.96 1066.64 1340.36 1062.39 1360.7 1088.26ZM2194.42 2132.3 2200.61 2162.42 2172.8 2149.3ZM1329.68 1076.62 1323.5 1046.5 1351.3 1059.62Z" fill="#156082"/><path d="M0.968199-3.29833 53.7415 12.1929 51.8051 18.7895-0.968199 3.29833ZM73.5315 18.0021 80.1282 19.9385 78.1918 26.5351 71.5951 24.5987ZM99.9182 25.7476 152.691 41.2388 150.755 47.8355 97.9818 32.3443ZM172.482 47.048 179.078 48.9844 177.142 55.5811 170.545 53.6447ZM198.868 54.7936 251.641 70.2848 249.705 76.8815 196.932 61.3903ZM271.431 76.094 278.028 78.0304 276.092 84.6271 269.495 82.6907ZM297.818 83.8396 350.591 99.3308 348.655 105.927 295.882 90.4363ZM370.381 105.14 376.978 107.076 375.042 113.673 368.445 111.737ZM396.768 112.886 449.541 128.377 447.605 134.973 394.832 119.482ZM469.331 134.186 475.928 136.122 473.992 142.719 467.395 140.783ZM495.718 141.932 548.491 157.423 546.555 164.019 493.782 148.528ZM568.281 163.232 574.878 165.168 572.942 171.765 566.345 169.829ZM594.668 170.978 647.441 186.469 645.505 193.065 592.732 177.574ZM667.231 192.278 673.828 194.214 671.892 200.811 665.295 198.875ZM693.618 200.024 718.584 207.352 716.647 213.949 691.682 206.62ZM717.091 196.166 739.605 217.105 709.346 222.553Z" fill="#156082" transform="matrix(1 0 0 -1 2063.5 2149.61)"/><path d="M1911.87 2119.3 1902.09 2093.6 1908.51 2091.15 1918.29 2116.86ZM1894.75 2074.32 1884.98 2048.62 1891.4 2046.17 1901.18 2071.88ZM1877.64 2029.34 1867.86 2003.64 1874.29 2001.19 1884.07 2026.9ZM1860.53 1984.36 1850.75 1958.66 1857.18 1956.21 1866.96 1981.92ZM1843.42 1939.38 1833.64 1913.68 1840.07 1911.23 1849.84 1936.94ZM1826.31 1894.4 1816.53 1868.7 1822.95 1866.25 1832.73 1891.96ZM1809.19 1849.42 1799.42 1823.72 1805.84 1821.27 1815.62 1846.98ZM1792.08 1804.44 1782.3 1778.74 1788.73 1776.29 1798.51 1802ZM1774.97 1759.46 1765.19 1733.76 1771.62 1731.31 1781.4 1757.02ZM1757.86 1714.48 1748.08 1688.78 1754.51 1686.33 1764.28 1712.04ZM1740.75 1669.5 1730.97 1643.8 1737.39 1641.35 1747.17 1667.06ZM1723.63 1624.52 1713.86 1598.82 1720.28 1596.37 1730.06 1622.08ZM1706.52 1579.54 1696.74 1553.84 1703.17 1551.39 1712.95 1577.1ZM1689.41 1534.56 1679.63 1508.86 1686.06 1506.41 1695.84 1532.12ZM1672.3 1489.58 1662.52 1463.88 1668.95 1461.43 1678.72 1487.14ZM1655.19 1444.6 1645.41 1418.9 1651.83 1416.45 1661.61 1442.16ZM1638.07 1399.62 1628.3 1373.92 1634.72 1371.47 1644.5 1397.18ZM1620.96 1354.64 1611.18 1328.94 1617.61 1326.49 1627.39 1352.2ZM1603.85 1309.66 1594.07 1283.96 1600.5 1281.51 1610.28 1307.22ZM1586.74 1264.68 1576.96 1238.98 1583.39 1236.53 1593.16 1262.24ZM1569.63 1219.7 1559.85 1194 1566.27 1191.55 1576.05 1217.26ZM1552.52 1174.72 1542.74 1149.02 1549.16 1146.57 1558.94 1172.28ZM1535.4 1129.74 1525.62 1104.04 1532.05 1101.59 1541.83 1127.3ZM1518.29 1084.76 1508.51 1059.06 1514.94 1056.61 1524.72 1082.32ZM1501.18 1039.78 1491.4 1014.08 1497.83 1011.63 1507.6 1037.34ZM1484.07 994.802 1474.29 969.099 1480.71 966.655 1490.49 992.357ZM1466.96 949.822 1457.18 924.119 1463.6 921.675 1473.38 947.377ZM1449.84 904.842 1440.07 879.139 1446.49 876.695 1456.27 902.397ZM1432.73 859.862 1422.95 834.159 1429.38 831.715 1439.16 857.418ZM1415.62 814.882 1413.44 809.142 1419.86 806.698 1422.05 812.438ZM1405.43 817.092 1408.5 786.5 1431.13 807.314Z" fill="#156082"/><path d="M1782.79 2063.81 1557.58 595.668 1564.37 594.625 1789.58 2062.77ZM1548.08 601.767 1557.5 572.5 1575.26 597.597Z" fill="#156082"/><path d="M1659.45 1972.75 1655.54 1945.53 1662.35 1944.55 1666.25 1971.77ZM1652.61 1925.11 1648.71 1897.89 1655.51 1896.92 1659.42 1924.14ZM1645.78 1877.48 1641.87 1850.25 1648.68 1849.28 1652.58 1876.5ZM1638.94 1829.84 1635.04 1802.62 1641.84 1801.64 1645.75 1828.86ZM1632.11 1782.2 1628.2 1754.98 1635.01 1754 1638.91 1781.22ZM1625.27 1734.56 1621.37 1707.34 1628.17 1706.37 1632.08 1733.59ZM1618.44 1686.93 1614.53 1659.71 1621.34 1658.73 1625.24 1685.95ZM1611.6 1639.29 1607.7 1612.07 1614.5 1611.09 1618.41 1638.31ZM1604.77 1591.65 1600.86 1564.43 1607.67 1563.46 1611.57 1590.68ZM1597.93 1544.02 1594.03 1516.79 1600.83 1515.82 1604.74 1543.04ZM1591.1 1496.38 1587.19 1469.16 1594 1468.18 1597.9 1495.4ZM1584.26 1448.74 1580.36 1421.52 1587.16 1420.54 1591.07 1447.76ZM1577.43 1401.1 1573.52 1373.88 1580.33 1372.91 1584.23 1400.13ZM1570.59 1353.47 1566.69 1326.25 1573.49 1325.27 1577.4 1352.49ZM1563.76 1305.83 1559.85 1278.61 1566.66 1277.63 1570.56 1304.85ZM1556.92 1258.19 1553.02 1230.97 1559.82 1230 1563.73 1257.22ZM1550.09 1210.56 1546.18 1183.33 1552.99 1182.36 1556.89 1209.58ZM1543.25 1162.92 1539.34 1135.7 1546.15 1134.72 1550.06 1161.94ZM1536.42 1115.28 1532.51 1088.06 1539.31 1087.08 1543.22 1114.3ZM1529.58 1067.64 1525.67 1040.42 1532.48 1039.45 1536.39 1066.67ZM1522.75 1020.01 1518.84 992.786 1525.64 991.809 1529.55 1019.03ZM1515.91 972.37 1512 945.149 1518.81 944.172 1522.72 971.393ZM1509.07 924.733 1505.17 897.511 1511.97 896.535 1515.88 923.756ZM1502.24 877.096 1498.33 849.874 1505.14 848.898 1509.05 876.119ZM1495.4 829.458 1491.5 802.237 1498.3 801.261 1502.21 828.482ZM1488.57 781.821 1484.66 754.6 1491.47 753.624 1495.37 780.845ZM1481.73 734.184 1477.83 706.963 1484.63 705.987 1488.54 733.208ZM1675.81 1965.77 1666.11 1994.95 1648.59 1969.68ZM1466.8 702.674 1476.5 673.5 1494.02 698.768Z" fill="#156082"/><path d="M22.9394 3.23251 49.2996 11.068 47.3407 17.658 20.9806 9.82254ZM69.0696 16.9445 95.4298 24.78 93.4709 31.37 67.1108 23.5346ZM115.2 30.6566 141.56 38.492 139.601 45.082 113.241 37.2466ZM161.33 44.3686 187.69 52.204 185.731 58.794 159.371 50.9586ZM207.46 58.0806 233.82 65.916 231.862 72.5061 205.501 64.6706ZM253.59 71.7926 279.951 79.628 277.992 86.2181 251.632 78.3826ZM299.721 85.5046 326.081 93.3401 324.122 99.9301 297.762 92.0947ZM345.851 99.2166 372.211 107.052 370.252 113.642 343.892 105.807ZM391.981 112.929 418.341 120.764 416.382 127.354 390.022 119.519ZM438.111 126.641 464.471 134.476 462.513 141.066 436.152 133.231ZM484.242 140.353 510.602 148.188 508.643 154.778 482.283 146.943ZM530.372 154.065 556.732 161.9 554.773 168.49 528.413 160.655ZM576.502 167.777 602.862 175.612 600.903 182.202 574.543 174.367ZM622.632 181.489 648.992 189.324 647.033 195.914 620.673 188.079ZM668.762 195.201 695.122 203.036 693.164 209.626 666.804 201.791ZM714.893 208.913 741.253 216.748 739.294 223.338 712.934 215.503ZM761.023 222.625 787.383 230.46 785.424 237.05 759.064 229.215ZM807.153 236.337 833.513 244.172 831.554 250.762 805.194 242.927ZM853.283 250.049 879.643 257.884 877.684 264.474 851.324 256.639ZM899.413 263.761 925.774 271.596 923.815 278.186 897.455 270.351ZM945.544 277.473 971.904 285.308 969.945 291.898 943.585 284.063ZM991.674 291.185 1018.03 299.02 1016.08 305.61 989.715 297.775ZM1037.8 304.897 1064.16 312.732 1062.21 319.322 1035.85 311.487ZM1083.93 318.609 1110.29 326.444 1108.34 333.034 1081.98 325.199ZM1130.06 332.321 1156.42 340.156 1154.47 346.746 1128.11 338.911ZM1176.19 346.033 1202.55 353.868 1200.6 360.458 1174.24 352.623ZM1222.32 359.745 1248.69 367.58 1246.73 374.17 1220.37 366.335ZM1268.46 373.457 1294.82 381.292 1292.86 387.882 1266.5 380.047ZM1314.59 387.169 1340.95 395.004 1338.99 401.595 1312.63 393.759ZM1360.72 400.881 1387.08 408.716 1385.12 415.307 1358.76 407.471ZM1406.85 414.593 1433.21 422.428 1431.25 429.019 1404.89 421.183ZM1452.98 428.305 1479.34 436.14 1477.38 442.731 1451.02 434.895ZM1499.11 442.017 1503.09 443.2 1501.13 449.79 1497.15 448.607ZM22.4424 21.0155 0 0 30.2778-5.34461ZM1501.64 432.011 1524.08 453.026 1493.8 458.371Z" fill="#156082" transform="matrix(1 0 0 -1 1557.5 1902.53)"/><path d="M6.50634 22.2411 49.516 337.223 42.7042 338.154-0.305449 23.1712ZM-9.90308 29.1074 0 0 17.3441 25.3869ZM59.1136 331.287 49.2106 360.395 31.8665 335.008Z" fill="#156082" transform="matrix(1 0 0 -1 1274.5 1281.89)"/><text font-family="DengXian Light,DengXian Light_MSFontService,sans-serif" font-weight="700" font-size="110" transform="matrix(1 0 0 1 199.447 212)"></text><text font-family="DengXian Light,DengXian Light_MSFontService,sans-serif" font-weight="700" font-size="110" transform="matrix(1 0 0 1 529.447 212)">2.1 Simon</text><text font-family="DengXian Light,DengXian Light_MSFontService,sans-serif" font-weight="700" font-size="110" transform="matrix(1 0 0 1 986.635 212)"></text><path d="M3494.5 154.062 3767.81 154.063 3767.81 160.938 3494.5 160.937ZM3763.23 143.75 3790.73 157.5 3763.23 171.25Z" fill="#156082"/><path d="M3494.5 207.062 3522 207.062 3522 213.937 3494.5 213.937ZM3542.62 207.062 3570.12 207.062 3570.12 213.937 3542.62 213.937ZM3590.75 207.062 3618.25 207.063 3618.25 213.938 3590.75 213.937ZM3638.88 207.063 3666.38 207.063 3666.38 213.938 3638.88 213.938ZM3687 207.063 3714.5 207.063 3714.5 213.938 3687 213.938ZM3735.12 207.063 3762.62 207.063 3762.62 213.938 3735.12 213.938ZM3763.05 196.75 3790.55 210.5 3763.05 224.25Z" fill="#156082"/><path d="M0.0399982-3.43727 55.0363-2.7973 54.9563 4.07724-0.0399982 3.43727ZM75.6599-2.55731 82.5344-2.47731 82.4544 4.39722 75.5799 4.31723ZM103.158-2.23732 158.154-1.59735 158.074 5.27718 103.078 4.63721ZM178.778-1.35736 185.652-1.27736 185.572 5.59717 178.698 5.51717ZM206.276-1.03737 261.272-0.397403 261.192 6.47713 206.196 5.83716ZM268.034-10.6319 295.372 3.43714 267.714 16.8662Z" fill="#156082" transform="matrix(1 0 0 -1 3494.5 257.937)"/><rect x="3431.5" y="63.5001" width="753" height="234" stroke="#000000" stroke-width="6.875" stroke-miterlimit="8" fill="none"/><text font-family="DengXian,DengXian_MSFontService,sans-serif" font-weight="400" font-size="41" transform="matrix(1 0 0 1 3464.47 119)"></text><text font-family="DengXian,DengXian_MSFontService,sans-serif" font-weight="400" font-size="41" transform="matrix(1 0 0 1 3464.47 168)">A</text><text font-family="DengXian,DengXian_MSFontService,sans-serif" font-weight="400" font-size="41" transform="matrix(1 0 0 1 3794.47 168)">B A</text><text font-family="DengXian,DengXian_MSFontService,sans-serif" font-weight="400" font-size="41" transform="matrix(1 0 0 1 3855.2 168)"></text><text font-family="DengXian,DengXian_MSFontService,sans-serif" font-weight="400" font-size="41" transform="matrix(1 0 0 1 3937.7 168)">B</text><text font-family="DengXian,DengXian_MSFontService,sans-serif" font-weight="400" font-size="41" transform="matrix(1 0 0 1 3464.47 218)">C</text><text font-family="DengXian,DengXian_MSFontService,sans-serif" font-weight="400" font-size="41" transform="matrix(1 0 0 1 3794.47 218)">D C</text><text font-family="DengXian,DengXian_MSFontService,sans-serif" font-weight="400" font-size="41" transform="matrix(1 0 0 1 3860.35 218)"></text><text font-family="DengXian,DengXian_MSFontService,sans-serif" font-weight="400" font-size="41" transform="matrix(1 0 0 1 4025.35 218)">D</text><text font-family="DengXian,DengXian_MSFontService,sans-serif" font-weight="400" font-size="41" transform="matrix(1 0 0 1 3464.47 267)">E</text><text font-family="DengXian,DengXian_MSFontService,sans-serif" font-weight="400" font-size="41" transform="matrix(1 0 0 1 3794.47 267)">F E</text><text font-family="DengXian,DengXian_MSFontService,sans-serif" font-weight="400" font-size="41" transform="matrix(1 0 0 1 3846.03 267)"></text><text font-family="DengXian,DengXian_MSFontService,sans-serif" font-weight="400" font-size="41" transform="matrix(1 0 0 1 4011.03 267)">F</text><path d="M3.42763-0.260286 5.50992 27.1608-1.34534 27.6813-3.42763 0.260286ZM7.07164 47.7265 9.15393 75.1476 2.29867 75.6682 0.216375 48.2471ZM10.7156 95.7134 12.7979 123.134 5.94267 123.655 3.86038 96.2339ZM14.3597 143.7 16.4419 171.121 9.58668 171.642 7.50439 144.221ZM18.0037 191.687 20.0859 219.108 13.2307 219.629 11.1484 192.208ZM21.6477 239.674 23.73 267.095 16.8747 267.616 14.7924 240.195ZM25.2917 287.661 27.374 315.082 20.5187 315.602 18.4364 288.181ZM28.9357 335.648 31.018 363.069 24.1627 363.589 22.0804 336.168ZM32.5797 383.634 34.662 411.055 27.8067 411.576 25.7244 384.155ZM36.2237 431.621 38.306 459.042 31.4507 459.563 29.3684 432.142ZM39.8677 479.608 41.95 507.029 35.0947 507.55 33.0124 480.129ZM43.5117 527.595 45.594 555.016 38.7387 555.537 36.6564 528.115ZM47.1557 575.582 49.238 603.003 42.3827 603.523 40.3004 576.102ZM50.7997 623.569 52.882 650.99 46.0267 651.51 43.9445 624.089ZM54.4437 671.555 56.526 698.976 49.6707 699.497 47.5885 672.076ZM58.0877 719.542 60.17 746.963 53.3148 747.484 51.2325 720.063ZM61.7317 767.529 63.814 794.95 56.9588 795.471 54.8765 768.05ZM65.3757 815.516 67.458 842.937 60.6028 843.458 58.5205 816.036ZM69.0198 863.503 71.102 890.924 64.2468 891.444 62.1645 864.023ZM72.6638 911.49 74.746 938.911 67.8908 939.431 65.8085 912.01ZM76.3078 959.477 78.3901 986.898 71.5348 987.418 69.4525 959.997ZM79.9518 1007.46 82.0341 1034.88 75.1788 1035.41 73.0965 1007.98ZM83.5958 1055.45 85.6781 1082.87 78.8228 1083.39 76.7405 1055.97ZM87.2398 1103.44 89.3221 1130.86 82.4668 1131.38 80.3845 1103.96ZM90.8838 1151.42 92.9661 1178.85 86.1108 1179.37 84.0285 1151.94ZM94.5278 1199.41 96.6101 1226.83 89.7548 1227.35 87.6725 1199.93ZM98.1718 1247.4 100.254 1274.82 93.3988 1275.34 91.3165 1247.92ZM101.816 1295.38 103.898 1322.81 97.0428 1323.33 94.9606 1295.91ZM105.46 1343.37 107.542 1370.79 100.687 1371.31 98.6046 1343.89ZM109.104 1391.36 111.186 1418.78 104.331 1419.3 102.249 1391.88ZM112.748 1439.34 114.83 1466.77 107.975 1467.29 105.893 1439.87ZM116.392 1487.33 118.474 1514.75 111.619 1515.27 109.537 1487.85ZM120.036 1535.32 121.823 1558.85 114.968 1559.37 113.181 1535.84ZM131.76 1553.51 120.131 1581.97 104.339 1555.59Z" fill="#156082" transform="matrix(1 0 0 -1 1666.5 1995.47)"/><path d="M3058.34 1029.74 3003.92 1021.79 3004.92 1014.98 3059.34 1022.94ZM2983.52 1018.8 2976.71 1017.81 2977.71 1011 2984.51 1012ZM2956.3 1014.82 2901.88 1006.87 2902.88 1000.06 2957.3 1008.02ZM2881.48 1003.88 2874.67 1002.89 2875.67 996.084 2882.47 997.079ZM2854.26 999.903 2799.84 991.946 2800.84 985.143 2855.26 993.1ZM2779.44 988.962 2772.63 987.967 2773.63 981.164 2780.43 982.159ZM2752.22 984.983 2697.8 977.026 2698.8 970.223 2753.22 978.18ZM2677.4 974.042 2670.59 973.047 2671.59 966.245 2678.39 967.239ZM2650.18 970.063 2595.76 962.106 2596.76 955.304 2651.18 963.261ZM2575.35 959.122 2568.55 958.128 2569.55 951.325 2576.35 952.32ZM2548.14 955.144 2493.72 947.187 2494.72 940.384 2549.14 948.341ZM2473.31 944.203 2466.51 943.208 2467.51 936.405 2474.31 937.4ZM2446.1 940.224 2391.68 932.267 2392.68 925.464 2447.1 933.421ZM2371.27 929.283 2364.47 928.288 2365.47 921.486 2372.27 922.48ZM2344.06 925.304 2289.64 917.347 2290.64 910.545 2345.06 918.502ZM2269.23 914.363 2262.43 913.369 2263.43 906.566 2270.23 907.561ZM2242.02 910.385 2187.6 902.428 2188.6 895.625 2243.02 903.582ZM2167.19 899.444 2160.39 898.449 2161.39 891.646 2168.19 892.641ZM2139.98 895.465 2085.56 887.508 2086.56 880.705 2140.98 888.662ZM2065.15 884.524 2058.35 883.529 2059.35 876.727 2066.15 877.721ZM2037.94 880.545 1983.52 872.588 1984.52 865.786 2038.94 873.743ZM1963.11 869.604 1956.31 868.61 1957.31 861.807 1964.11 862.802ZM1935.9 865.626 1881.48 857.669 1882.48 850.866 1936.9 858.823ZM1861.07 854.685 1854.27 853.69 1855.27 846.887 1862.07 847.882ZM1833.86 850.706 1779.44 842.749 1780.44 835.946 1834.86 843.903ZM1759.03 839.765 1752.23 838.77 1753.23 831.968 1760.03 832.962ZM1731.82 835.786 1677.4 827.829 1678.4 821.026 1732.82 828.984ZM1656.99 824.845 1650.19 823.851 1651.19 817.048 1657.99 818.043ZM1629.78 820.867 1575.36 812.91 1576.36 806.107 1630.78 814.064ZM1554.95 809.926 1548.15 808.931 1549.15 802.128 1555.95 803.123ZM1527.74 805.947 1473.32 797.99 1474.32 791.187 1528.74 799.144ZM1452.91 795.006 1446.11 794.011 1447.11 787.209 1453.91 788.203ZM3056.31 1012.07 3081.53 1029.66 3052.33 1039.28ZM1443.72 804.084 1418.5 786.5 1447.7 776.873Z" fill="#156082"/><path d="M0.143853-3.43449 633.81 23.1065 633.522 29.9755-0.143853 3.43449ZM629.662 12.6112 656.562 27.5 628.511 40.0871Z" fill="#156082" transform="matrix(1 0 0 -1 1915.5 2118)"/><path d="M6.92851 22.1142 11.1668 49.2856 4.37394 50.3452 0.135655 23.1738ZM14.3455 69.6642 18.5838 96.8356 11.7909 97.8952 7.55266 70.7238ZM21.7625 117.214 26.0008 144.386 19.208 145.445 14.9697 118.274ZM29.1795 164.764 33.4178 191.936 26.625 192.995 22.3867 165.824ZM36.5965 212.314 40.8348 239.486 34.042 240.545 29.8037 213.374ZM44.0135 259.864 48.2518 287.036 41.459 288.095 37.2207 260.924ZM51.4306 307.414 55.6688 334.586 48.876 335.645 44.6377 308.474ZM58.8476 354.964 63.0858 382.136 56.293 383.195 52.0547 356.024ZM66.2646 402.514 70.5028 429.686 63.71 430.745 59.4717 403.574ZM73.6816 450.064 77.9199 477.236 71.127 478.295 66.8887 451.124ZM81.0986 497.614 85.3369 524.786 78.544 525.845 74.3057 498.674ZM88.5156 545.164 92.7539 572.336 85.961 573.395 81.7227 546.224ZM95.9326 592.714 100.171 619.886 93.378 620.945 89.1397 593.774ZM103.35 640.264 107.588 667.436 100.795 668.495 96.5567 641.324ZM110.767 687.814 115.005 714.986 108.212 716.045 103.974 688.874ZM118.184 735.364 122.422 762.536 115.629 763.595 111.391 736.424ZM125.601 782.914 129.839 810.086 123.046 811.145 118.808 783.974ZM133.018 830.464 137.256 857.636 130.463 858.695 126.225 831.524ZM140.435 878.014 144.673 905.186 137.88 906.245 133.642 879.074ZM147.852 925.564 152.09 952.736 145.297 953.795 141.059 926.624ZM155.269 973.115 159.507 1000.29 152.714 1001.35 148.476 974.174ZM162.686 1020.66 166.924 1047.84 160.131 1048.9 155.893 1021.72ZM170.103 1068.21 174.341 1095.39 167.548 1096.45 163.31 1069.27ZM177.52 1115.76 181.758 1142.94 174.965 1144 170.727 1116.82ZM184.937 1163.31 189.175 1190.49 182.382 1191.55 178.144 1164.37ZM192.354 1210.86 196.592 1238.04 189.799 1239.1 185.561 1211.92ZM199.771 1258.41 204.009 1285.59 197.216 1286.65 192.978 1259.47ZM-9.34742 29.2906 0 0 17.824 25.0523ZM216.05 1295.87 206.702 1325.16 188.878 1300.1Z" fill="#156082" transform="matrix(1 0 0 -1 1459.5 1803.66)"/><path d="M1.94476-2.83449 24.6207 12.7236 20.7311 18.3926-1.94476 2.83449ZM41.6276 24.3922 64.3035 39.9502 60.4139 45.6192 37.7381 30.0611ZM81.3104 51.6188 103.986 67.1769 100.097 72.8458 77.4209 57.2878ZM120.993 78.8454 143.669 94.4035 139.78 100.072 117.104 84.5144ZM160.676 106.072 183.352 121.63 179.462 127.299 156.786 111.741ZM200.359 133.299 223.035 148.857 219.145 154.526 196.469 138.968ZM240.042 160.525 262.718 176.083 258.828 181.752 236.152 166.194ZM279.724 187.752 302.4 203.31 298.511 208.979 275.835 193.421ZM319.407 214.979 342.083 230.537 338.194 236.206 315.518 220.648ZM359.09 242.205 381.766 257.763 377.876 263.432 355.201 247.874ZM398.773 269.432 421.449 284.99 417.559 290.659 394.883 275.101ZM438.456 296.659 461.132 312.217 457.242 317.886 434.566 302.327ZM478.139 323.885 500.814 339.443 496.925 345.112 474.249 329.554ZM517.821 351.112 540.497 366.67 536.608 372.339 513.932 356.781ZM557.504 378.338 580.18 393.896 576.291 399.565 553.615 384.007ZM597.187 405.565 619.863 421.123 615.973 426.792 593.297 411.234ZM636.87 432.792 659.546 448.35 655.656 454.019 632.98 438.461ZM676.553 460.018 699.229 475.576 695.339 481.245 672.663 465.687ZM716.235 487.245 738.911 502.803 735.022 508.472 712.346 492.914ZM755.918 514.472 778.594 530.03 774.705 535.699 752.029 520.141ZM795.601 541.698 818.277 557.256 814.387 562.925 791.711 547.367ZM828.919 552.052 843.816 578.948 813.361 574.727Z" fill="#156082" transform="matrix(1 0 0 -1 2200.5 2149.45)"/><path d="M2059.47 2151.39 2047.72 2126.52 2053.94 2123.59 2065.69 2148.45ZM2038.92 2107.88 2027.17 2083.01 2033.39 2080.07 2045.13 2104.94ZM2018.36 2064.36 2006.61 2039.5 2012.83 2036.56 2024.58 2061.42ZM1997.8 2020.85 1986.06 1995.98 1992.27 1993.05 2004.02 2017.91ZM1977.25 1977.33 1965.5 1952.47 1971.72 1949.53 1983.46 1974.4ZM1956.69 1933.82 1944.94 1908.95 1951.16 1906.02 1962.91 1930.88ZM1936.14 1890.31 1924.39 1865.44 1930.61 1862.5 1942.35 1887.37ZM1915.58 1846.79 1903.83 1821.93 1910.05 1818.99 1921.8 1843.85ZM1895.02 1803.28 1883.28 1778.41 1889.49 1775.48 1901.24 1800.34ZM1874.47 1759.76 1862.72 1734.9 1868.94 1731.96 1880.68 1756.83ZM1853.91 1716.25 1842.17 1691.38 1848.38 1688.45 1860.13 1713.31ZM1833.36 1672.74 1821.61 1647.87 1827.83 1644.93 1839.57 1669.8ZM1812.8 1629.22 1801.05 1604.36 1807.27 1601.42 1819.02 1626.28ZM1792.24 1585.71 1780.5 1560.84 1786.71 1557.91 1798.46 1582.77ZM1771.69 1542.19 1759.94 1517.33 1766.16 1514.39 1777.9 1539.26ZM1751.13 1498.68 1739.39 1473.81 1745.6 1470.88 1757.35 1495.74ZM1730.58 1455.17 1718.83 1430.3 1725.05 1427.36 1736.79 1452.23ZM1710.02 1411.65 1698.27 1386.79 1704.49 1383.85 1716.24 1408.72ZM1689.46 1368.14 1677.72 1343.27 1683.93 1340.34 1695.68 1365.2ZM1668.91 1324.62 1657.16 1299.76 1663.38 1296.82 1675.12 1321.69ZM1648.35 1281.11 1636.61 1256.24 1642.82 1253.31 1654.57 1278.17ZM1627.8 1237.6 1616.05 1212.73 1622.27 1209.79 1634.01 1234.66ZM1607.24 1194.08 1595.49 1169.22 1601.71 1166.28 1613.46 1191.15ZM1586.68 1150.57 1574.94 1125.7 1581.15 1122.77 1592.9 1147.63ZM1566.13 1107.05 1554.38 1082.19 1560.6 1079.25 1572.34 1104.12ZM1545.57 1063.54 1533.83 1038.67 1540.04 1035.74 1551.79 1060.6ZM1525.02 1020.03 1513.27 995.161 1519.49 992.224 1531.23 1017.09ZM1504.46 976.512 1492.71 951.647 1498.93 948.71 1510.68 973.575ZM1483.9 932.998 1472.16 908.133 1478.37 905.196 1490.12 930.061ZM1463.35 889.484 1451.6 864.619 1457.82 861.682 1469.56 886.547ZM1442.79 845.97 1431.05 821.104 1437.26 818.168 1449.01 843.033ZM1417.81 817.238 1418.5 786.5 1442.68 805.492Z" fill="#156082"/><text font-family="DengXian,DengXian_MSFontService,sans-serif" font-weight="400" font-size="403" transform="matrix(1 0 0 1 3570.89 672)"></text><text font-family="DengXian,DengXian_MSFontService,sans-serif" font-weight="400" font-size="403" transform="matrix(1 0 0 1 3570.89 1156)"></text><text font-family="DengXian,DengXian_MSFontService,sans-serif" font-weight="400" font-size="403" transform="matrix(1 0 0 1 3570.89 1640)"></text><text font-family="DengXian,DengXian_MSFontService,sans-serif" font-weight="400" font-size="403" transform="matrix(1 0 0 1 3570.89 2124)"></text><text font-family="DengXian,DengXian_MSFontService,sans-serif" font-weight="400" font-size="403" transform="matrix(1 0 0 1 340.079 672)"></text><text font-family="DengXian,DengXian_MSFontService,sans-serif" font-weight="400" font-size="403" transform="matrix(1 0 0 1 340.079 1156)"></text><text font-family="DengXian,DengXian_MSFontService,sans-serif" font-weight="400" font-size="403" transform="matrix(1 0 0 1 340.079 1640)"></text><text font-family="DengXian,DengXian_MSFontService,sans-serif" font-weight="400" font-size="403" transform="matrix(1 0 0 1 340.079 2124)"></text><path d="M1139.08 2265.84 1964.08 2265.84 1964.08 2351.84 1139.08 2351.84Z" fill="#FFFF00" fill-rule="evenodd"/><path d="M1964.08 2265.84 2046.58 2265.84 2046.58 2351.84 1964.08 2351.84Z" fill="#FFFF00" fill-rule="evenodd"/><path d="M2046.58 2265.84 2188.66 2265.84 2188.66 2351.84 2046.58 2351.84Z" fill="#FFFF00" fill-rule="evenodd"/><path d="M2188.66 2265.84 3261.16 2265.84 3261.16 2351.84 2188.66 2351.84Z" fill="#FFFF00" fill-rule="evenodd"/><path d="M1139.08 2364.84 2541.58 2364.84 2541.58 2450.84 1139.08 2450.84Z" fill="#FFFF00" fill-rule="evenodd"/><text fill="#FF0000" font-family="DengXian,DengXian_MSFontService,sans-serif" font-weight="400" font-size="83" transform="matrix(1 0 0 1 1139.08 2330)"></text><text fill="#FF0000" font-family="DengXian,DengXian_MSFontService,sans-serif" font-weight="400" font-size="83" transform="matrix(1 0 0 1 1964.08 2330)"></text><text fill="#FF0000" font-family="DengXian,DengXian_MSFontService,sans-serif" font-weight="400" font-size="83" transform="matrix(1 0 0 1 2046.58 2330)">ZXR</text><text fill="#FF0000" font-family="DengXian,DengXian_MSFontService,sans-serif" font-weight="400" font-size="83" transform="matrix(1 0 0 1 2188.66 2330)"></text><text fill="#FF0000" font-family="DengXian,DengXian_MSFontService,sans-serif" font-weight="400" font-size="83" transform="matrix(1 0 0 1 1139.08 2429)"></text><path d="M3113.59 1168.6 3088.14 1158.18 3090.75 1151.81 3116.2 1162.24ZM3069.06 1150.36 3062.7 1147.75 3065.3 1141.39 3071.67 1143.99ZM3043.61 1139.93 3018.17 1129.5 3020.77 1123.14 3046.22 1133.57ZM2999.08 1121.68 2992.72 1119.08 2995.33 1112.71 3001.69 1115.32ZM2973.63 1111.26 2948.19 1100.83 2950.79 1094.47 2976.24 1104.89ZM2929.1 1093.01 2922.74 1090.4 2925.35 1084.04 2931.71 1086.65ZM2903.66 1082.58 2878.21 1072.16 2880.82 1065.79 2906.26 1076.22ZM2859.12 1064.34 2852.76 1061.73 2855.37 1055.37 2861.73 1057.97ZM2833.68 1053.91 2808.23 1043.48 2810.84 1037.12 2836.28 1047.55ZM2789.15 1035.66 2782.78 1033.06 2785.39 1026.69 2791.75 1029.3ZM2763.7 1025.24 2738.25 1014.81 2740.86 1008.45 2766.31 1018.87ZM2719.17 1006.99 2712.81 1004.38 2715.41 998.021 2721.77 1000.63ZM2693.72 996.563 2668.27 986.136 2670.88 979.775 2696.33 990.201ZM2649.19 978.317 2642.83 975.71 2645.43 969.348 2651.8 971.955ZM2623.74 967.89 2598.3 957.463 2600.9 951.102 2626.35 961.528ZM2579.21 949.643 2572.85 947.037 2575.46 940.675 2581.82 943.282ZM2553.76 939.217 2528.32 928.79 2530.92 922.428 2556.37 932.855ZM2509.23 920.97 2502.87 918.364 2505.48 912.002 2511.84 914.609ZM2483.78 910.544 2458.34 900.117 2460.94 893.755 2486.39 904.182ZM2439.25 892.297 2432.89 889.69 2435.5 883.329 2441.86 885.935ZM2413.81 881.87 2388.36 871.444 2390.97 865.082 2416.41 875.509ZM2369.27 863.624 2362.91 861.017 2365.52 854.656 2371.88 857.262ZM2343.83 853.197 2318.38 842.771 2320.99 836.409 2346.43 846.836ZM2299.3 834.951 2292.93 832.344 2295.54 825.982 2301.9 828.589ZM2273.85 824.524 2248.4 814.098 2251.01 807.736 2276.46 818.162ZM2229.32 806.278 2222.96 803.671 2225.56 797.309 2231.92 799.916ZM2203.87 795.851 2178.42 785.424 2181.03 779.063 2206.48 789.489ZM2159.34 777.604 2152.98 774.998 2155.58 768.636 2161.95 771.243ZM2133.89 767.178 2108.45 756.751 2111.05 750.39 2136.5 760.816ZM2089.36 748.931 2083 746.325 2085.61 739.963 2091.97 742.57ZM2063.91 738.505 2038.47 728.078 2041.07 721.716 2066.52 732.143ZM2019.38 720.258 2013.02 717.652 2015.63 711.29 2021.99 713.896ZM1993.94 709.832 1968.49 699.405 1971.1 693.043 1996.54 703.47ZM1949.4 691.585 1943.04 688.978 1945.65 682.617 1952.01 685.223ZM1923.96 681.159 1898.51 670.732 1901.12 664.37 1926.56 674.797ZM1879.42 662.912 1873.06 660.305 1875.67 653.944 1882.03 656.55ZM1853.98 652.485 1828.53 642.059 1831.14 635.697 1856.58 646.124ZM1809.45 634.239 1803.08 631.632 1805.69 625.271 1812.05 627.877ZM1784 623.812 1758.55 613.386 1761.16 607.024 1786.61 617.451ZM1739.47 605.566 1733.11 602.959 1735.71 596.597 1742.07 599.204ZM1714.02 595.139 1688.57 584.713 1691.18 578.351 1716.63 588.777ZM1669.49 576.893 1663.13 574.286 1665.73 567.924 1672.1 570.531ZM1644.04 566.466 1619.4 556.367 1622 550.005 1646.65 560.104ZM1619.73 567.65 1599.5 544.5 1630.16 542.203Z" fill="#156082"/><path d="M3113.57 1169.11 3089.72 1155.44 3093.14 1149.47 3116.99 1163.15ZM3071.82 1145.18 3065.86 1141.76 3069.28 1135.79 3075.24 1139.21ZM3047.97 1131.5 3024.11 1117.82 3027.53 1111.86 3051.39 1125.54ZM3006.22 1107.56 3000.25 1104.15 3003.67 1098.18 3009.64 1101.6ZM2982.36 1093.89 2958.5 1080.21 2961.92 1074.24 2985.78 1087.92ZM2940.61 1069.95 2934.64 1066.53 2938.06 1060.57 2944.03 1063.99ZM2916.75 1056.27 2892.89 1042.6 2896.31 1036.63 2920.17 1050.31ZM2875 1032.34 2869.04 1028.92 2872.46 1022.95 2878.42 1026.37ZM2851.14 1018.66 2827.29 1004.98 2830.71 999.018 2854.56 1012.7ZM2809.39 994.724 2803.43 991.305 2806.85 985.34 2812.81 988.76ZM2785.54 981.046 2761.68 967.369 2765.1 961.404 2788.96 975.082ZM2743.79 957.11 2737.82 953.691 2741.24 947.727 2747.2 951.146ZM2719.93 943.433 2696.07 929.755 2699.49 923.791 2723.35 937.469ZM2678.18 919.497 2672.21 916.078 2675.63 910.113 2681.6 913.533ZM2654.32 905.819 2630.46 892.142 2633.88 886.177 2657.74 899.855ZM2612.57 881.883 2606.61 878.464 2610.03 872.5 2615.99 875.919ZM2588.71 868.206 2564.86 854.528 2568.27 848.564 2592.13 862.241ZM2546.96 844.27 2541 840.85 2544.42 834.886 2550.38 838.306ZM2523.1 830.592 2499.25 816.915 2502.67 810.95 2526.52 824.628ZM2481.35 806.656 2475.39 803.237 2478.81 797.273 2484.77 800.692ZM2457.5 792.979 2433.64 779.301 2437.06 773.337 2460.92 787.014ZM2415.75 769.043 2409.78 765.623 2413.2 759.659 2419.17 763.079ZM2391.89 755.365 2368.03 741.688 2371.45 735.723 2395.31 749.401ZM2350.14 731.429 2344.18 728.01 2347.59 722.046 2353.56 725.465ZM2326.28 717.752 2302.42 704.074 2305.84 698.11 2329.7 711.787ZM2284.53 693.816 2278.57 690.396 2281.99 684.432 2287.95 687.852ZM2260.67 680.138 2236.82 666.461 2240.24 660.496 2264.09 674.174ZM2218.92 656.202 2212.96 652.783 2216.38 646.819 2222.34 650.238ZM2195.07 642.525 2171.21 628.847 2174.63 622.883 2198.49 636.56ZM2153.32 618.589 2147.35 615.169 2150.77 609.205 2156.74 612.624ZM2129.46 604.911 2105.6 591.234 2109.02 585.269 2132.88 598.947ZM2087.71 580.975 2081.74 577.556 2085.16 571.592 2091.13 575.011ZM2063.85 567.298 2039.99 553.62 2043.41 547.656 2067.27 561.333ZM2022.1 543.362 2016.14 539.942 2019.56 533.978 2025.52 537.398ZM1998.24 529.684 1974.39 516.006 1977.81 510.042 2001.66 523.72ZM1956.49 505.748 1950.53 502.329 1953.95 496.365 1959.91 499.784ZM1932.64 492.071 1908.78 478.393 1912.2 472.429 1936.06 486.106ZM1890.89 468.135 1884.92 464.715 1888.34 458.751 1894.31 462.17ZM1867.03 454.457 1843.17 440.779 1846.59 434.815 1870.45 448.493ZM1825.28 430.521 1820.67 427.88 1824.09 421.915 1828.7 424.557ZM1819.52 439.106 1802.5 413.5 1833.2 415.249Z" fill="#156082"/></g></svg>